<svg width="131" height="131" viewBox="0 0 131 131" fill="none" xmlns="http://www.w3.org/2000/svg">

    <!-- <g id="js">
    <path d="M8.11639 7.5H113.116V112.5H8.11639V7.5Z" fill="#F5DE19"/>
    <path d="M78.6501 89.5312C79.5448 91.3485 80.9347 92.8759 82.6598 93.9375C84.3848 94.9991 86.3747 95.5515 88.4001 95.5313C92.4876 95.5313 95.1014 93.4875 95.1014 90.6562C95.1014 87.2812 92.4164 86.0738 87.9164 84.105L85.4489 83.0475C78.3239 80.0138 73.5989 76.215 73.5989 68.1825C73.5989 60.7838 79.2239 55.1475 88.0476 55.1475C90.904 54.9412 93.7579 55.5805 96.2534 56.9856C98.7488 58.3907 100.775 60.4994 102.08 63.0488L94.3664 67.98C93.864 66.716 92.9892 65.6345 91.858 64.879C90.7268 64.1236 89.3927 63.7298 88.0326 63.75C87.4392 63.6906 86.84 63.7555 86.273 63.9404C85.7061 64.1254 85.1839 64.4265 84.7397 64.8244C84.2956 65.2224 83.9392 65.7085 83.6932 66.2518C83.4473 66.7951 83.3173 67.3837 83.3114 67.98C83.3114 70.9388 85.1451 72.1388 89.3789 73.98L91.8464 75.0375C100.231 78.6338 104.971 82.2975 104.971 90.5363C104.971 99.42 97.9926 104.287 88.6214 104.287C84.97 104.52 81.3293 103.691 78.1387 101.901C74.948 100.11 72.3438 97.4342 70.6401 94.1963L78.6501 89.5312ZM43.7939 90.3863C45.3426 93.135 46.7526 95.46 50.1426 95.46C53.3826 95.46 55.4301 94.1925 55.4301 89.2612V55.71H65.2964V89.3925C65.2964 99.6075 59.2964 104.257 50.5626 104.257C47.4755 104.426 44.4095 103.657 41.7677 102.051C39.126 100.444 37.0321 98.0761 35.7614 95.2575L43.7939 90.3863Z" fill="black"/>
    </g> -->

    <g id="webstorm">
        <svg xmlns="http://www.w3.org/2000/svg" viewBox="0 0 48 48" width="131px" height="131px">
            <polygon fill="#00b8d4"
                     points="40.93,15.56 34.62,21.87 34.21,21.63 32.67,20.72 29.36,18.77 38.43,9.69 40.1,13.61 40.61,14.81"/>
            <polygon fill="#00b8d4" points="30.051,10.652 29,9 25,7 21,9 15,6 6,10 8.875,26.672 24.625,26.5"/>
            <polygon fill="#ffea00" points="28.75,6.125 20,15 26.729,17.217 36.676,6.598"/>
            <polygon fill="#9ccc65" points="37.125,6.625 36.676,6.598 26,17 29.357,18.768 38.431,9.694"/>
            <polygon fill="#2979ff" points="42.12,18.38 37.38,23.5 34.62,21.87 40.93,15.56"/>
            <polygon fill="#00b8d4" points="32,14 24.988,25.441 32.063,35.608 42.12,29.62"/>
            <polygon fill="#1e88e5"
                     points="24.625,26.5 8.875,26.672 11,39 31,42 32.06,35.61 32.063,35.608 24.988,25.441"/>
            <rect width="22" height="22" x="13" y="13" fill="#090504"/>
            <polygon fill="#00b8d4" points="33,35 26,39 21,35"/>
            <rect width="8" height="2" x="15" y="31" fill="#fff"/>
            <polygon fill="#fff"
                     points="14.625,15.875 16.625,15.875 18.125,21.125 19.75,15.875 21.25,15.875 22.75,21 24,15.875 26.125,15.875 23.625,25 21.875,25 20.25,20.25 18.875,24.875 17.125,24.875"/>
            <path fill="#fff"
                  d="M31.75,18.25l1-1.5c0,0-1.193-1.162-3.625-1.125c-2.158,0.033-2.907,1.707-2.875,2.625 c0.028,0.79,0,2,2.875,2.875c0.799,0.243,1.298,0.496,1.603,0.734c0.496,0.387,0.286,1.2-0.328,1.338 c-0.734,0.165-2.032,0.213-3.275-0.947l-1.25,1.5c0,0,1.875,1.5,4,1.375s3.375-1.625,3.25-2.875s-0.875-2-2.5-2.625 s-2.451-0.416-2.425-1.579C28.223,17.017,30,17,31.75,18.25z"/>
        </svg>
    </g>

    <g id="tailwind">
        <svg xmlns="http://www.w3.org/2000/svg" viewBox="0 0 100 100" width="131px" height="131px" baseProfile="basic">
            <path fill="#31c4f3"
                  d="M30.64,36.275c7.042-8.542,10.948-13.279,17.99-13.279c12.764,0,16.07,9.906,24.867,16.413 C77,42,86.98,44.818,90.501,36.275C86.98,48.021,79.938,53.36,72.895,53.36C67.722,53.36,61,48,54.849,41.08 C47.267,32.552,34.162,32.004,30.64,36.275z"/>
            <path fill="#31c4f3"
                  d="M9.499,59.919c7.042-8.542,10.948-13.279,17.99-13.279c12.764,0,16.359,9.532,24.867,16.413 C56,66,65.838,68.461,69.36,59.919c-3.521,11.746-10.564,17.084-17.606,17.084C46.581,77.004,40,72,33.707,64.724 C26.243,56.093,13.02,55.648,9.499,59.919z"/>
            <path fill="#1f212b"
                  d="M72.895,54.359c-6.265,0-13.678-6.86-18.794-12.615c-4.756-5.35-11.458-7.193-16.122-7.077 c-2.998,0.056-5.452,0.894-6.565,2.242c0,0,0,0-0.001,0.001c-0.352,0.427-0.982,0.487-1.408,0.136 c-0.426-0.351-0.488-0.98-0.136-1.406c0.001-0.003,0.003-0.005,0.005-0.007c7.011-8.504,11.245-13.637,18.757-13.637 c9.158,0,13.657,4.833,18.42,9.951c2.129,2.287,4.331,4.652,7.042,6.658c2.023,1.495,6.572,3.132,10.357,2.076 c2.364-0.657,4.089-2.269,5.127-4.787c0.203-0.492,0.759-0.738,1.259-0.562c0.502,0.179,0.776,0.719,0.624,1.229 C88.118,47.706,81.178,54.359,72.895,54.359z M38.293,32.664c5.1,0,12.213,2.026,17.303,7.752 c6.846,7.702,12.99,11.943,17.299,11.943c5.891,0,11.058-3.931,14.46-10.767c-0.726,0.438-1.517,0.779-2.369,1.016 c-4.685,1.304-9.897-0.778-12.083-2.396c-2.86-2.115-5.125-4.55-7.316-6.903c-4.651-4.998-8.668-9.313-16.956-9.313 c-5.472,0-9.01,3.182-14.004,9.055c1.014-0.23,2.128-0.361,3.315-0.383C38.058,32.665,38.175,32.664,38.293,32.664z"/>
            <path fill="#1f212b"
                  d="M51.753,78.004c-5.083,0-11.761-4.483-18.803-12.625c-4.598-5.317-11.242-7.159-15.893-7.098 c-3.105,0.036-5.642,0.886-6.787,2.272c0,0-0.001,0.001-0.001,0.001l0,0c-0.352,0.428-0.98,0.487-1.408,0.136 c-0.426-0.352-0.487-0.981-0.135-1.407l0,0c0.001-0.002,0.003-0.004,0.004-0.006c7.011-8.504,11.245-13.637,18.757-13.637 c9.493,0,14.151,5.034,19.084,10.363c1.964,2.123,3.996,4.317,6.412,6.271c2.183,1.766,6.437,3.152,10.016,2.235 c2.51-0.641,4.338-2.313,5.435-4.973c0.204-0.493,0.759-0.74,1.259-0.562c0.502,0.179,0.776,0.719,0.624,1.229 C66.977,71.351,60.037,78.004,51.753,78.004z M17.257,56.279c5.104,0,12.233,2.04,17.207,7.791 c6.656,7.695,12.797,11.934,17.29,11.934c5.864,0,11.011-3.895,14.414-10.675c-0.812,0.497-1.705,0.873-2.671,1.119 c-4.258,1.089-9.144-0.494-11.769-2.618c-2.528-2.044-4.609-4.293-6.622-6.468c-4.828-5.217-8.998-9.722-17.616-9.722 c-5.467,0-9.004,3.176-13.991,9.038c1.076-0.247,2.266-0.383,3.537-0.397C17.108,56.28,17.183,56.279,17.257,56.279z"/>
            <path d="M59.424,69.567c-4.122,0-8.357-2.487-10.382-4.126c-2.181-1.764-4.185-3.977-6.124-6.116C38.575,54.529,34.473,50,28.5,50 c-0.276,0-0.5-0.224-0.5-0.5s0.224-0.5,0.5-0.5c6.416,0,10.861,4.907,15.159,9.653c1.913,2.112,3.891,4.296,6.011,6.011 c2.148,1.737,6.905,4.494,11.123,3.794c0.271-0.049,0.529,0.14,0.575,0.411c0.045,0.272-0.139,0.53-0.412,0.575 C60.451,69.528,59.938,69.567,59.424,69.567z"/>
            <path d="M19.5,53c-0.162,0-0.32-0.078-0.417-0.223c-0.153-0.229-0.091-0.54,0.139-0.693c2.513-1.676,4.26-2.59,6.836-2.935 c0.273-0.045,0.525,0.155,0.562,0.429s-0.155,0.525-0.429,0.562c-2.381,0.319-4.028,1.186-6.414,2.776 C19.692,52.973,19.596,53,19.5,53z"/>
            <path d="M80.924,46.067c-4.122,0-8.357-2.487-10.382-4.126c-2.181-1.764-4.185-3.977-6.124-6.116 C60.075,31.029,55.973,26.5,50,26.5c-0.276,0-0.5-0.224-0.5-0.5s0.224-0.5,0.5-0.5c6.416,0,10.861,4.907,15.159,9.653 c1.913,2.112,3.891,4.296,6.011,6.011c2.148,1.737,6.907,4.487,11.123,3.794c0.273-0.053,0.53,0.14,0.575,0.411 c0.045,0.272-0.139,0.53-0.412,0.575C81.951,46.028,81.438,46.067,80.924,46.067z"/>
            <path d="M41,29.5c-0.162,0-0.32-0.078-0.417-0.223c-0.153-0.229-0.091-0.54,0.139-0.693c2.24-1.493,3.869-2.383,6.057-2.809 c0.273-0.046,0.534,0.125,0.586,0.396c0.053,0.271-0.125,0.534-0.396,0.587c-2.022,0.393-3.561,1.237-5.693,2.658 C41.192,29.473,41.096,29.5,41,29.5z"/>
        </svg>
    </g>

    <g id="html5">
        <path d="M22.9817 102.004L14.5554 7.5H107.143L98.7054 101.989L60.7929 112.5L22.9817 102.004Z" fill="#E44F26"/>
        <path d="M60.8492 104.468L91.4867 95.9738L98.6942 15.2288H60.8492V104.468Z" fill="#F1662A"/>
        <path d="M60.8492 50.2762H45.5117L44.4542 38.4075H60.8492V26.8162H31.7867L32.0642 29.9287L34.9104 61.8675H60.8492V50.2762ZM60.8492 80.3775L60.7967 80.3925L47.8892 76.9087L47.0642 67.665H35.4279L37.0517 85.86L60.7967 92.4525L60.8492 92.4375V80.3775Z"
              fill="#EBEBEB"/>
        <path d="M60.8079 50.2762V61.8675H75.0804L73.7379 76.9012L60.8079 80.3887V92.4487L84.5717 85.86L84.7442 83.9025L87.4667 53.3887L87.7517 50.2762H60.8079ZM60.8079 26.8162V38.4075H88.8054L89.0379 35.805L89.5667 29.9287L89.8442 26.8162H60.8079Z"
              fill="white"/>
    </g>


    <g id="css3">
        <path d="M22.3653 101.154L13.9428 7.4375H106.523L98.089 101.139L60.1765 111.562L22.3653 101.154Z"
              fill="#1572B6"/>
        <path d="M60.2328 103.597L90.8703 95.174L98.0778 15.1019H60.2328V103.597Z" fill="#33A9DC"/>
        <path d="M60.2328 49.054H75.5703L76.6278 37.2842H60.2328V25.7896H89.2953L89.0178 28.8724L86.1715 60.5487H60.2328V49.054Z"
              fill="white"/>
        <path d="M60.304 78.9045L60.2515 78.9193L47.344 75.4609L46.519 66.2942H34.8828L36.5065 84.3413L60.2478 90.8788L60.304 90.864V78.9045Z"
              fill="#EBEBEB"/>
        <path d="M74.584 60.0615L73.189 75.4534L60.2628 78.9119V90.8714L84.0228 84.3412L84.199 82.4001L86.2128 60.0615H74.584Z"
              fill="white"/>
        <path d="M60.274 25.7896V37.2842H32.2765L32.044 34.6997L31.5153 28.8724L31.2378 25.7896H60.274ZM60.2328 49.054V60.5487H47.4865L47.254 57.9642L46.729 52.1369L46.4515 49.054H60.2328Z"
              fill="#EBEBEB"/>
    </g>

    <g id="sass">
        <svg xmlns="http://www.w3.org/2000/svg" viewBox="0 0 48 48" width="131px" height="131px">
            <path fill="#f06292"
                  d="M39.867,25.956c-1.538,0.008-2.87,0.377-3.986,0.928c-0.408-0.815-0.822-1.532-0.891-2.065	c-0.081-0.622-0.175-0.994-0.077-1.735c0.098-0.741,0.527-1.791,0.521-1.87c-0.006-0.079-0.096-0.456-0.983-0.463	c-0.887-0.006-1.646,0.171-1.735,0.405c-0.089,0.234-0.26,0.761-0.366,1.311c-0.155,0.804-1.771,3.673-2.688,5.173	c-0.3-0.586-0.555-1.102-0.608-1.51c-0.081-0.622-0.175-0.994-0.077-1.735c0.098-0.741,0.527-1.791,0.521-1.87	c-0.006-0.079-0.096-0.456-0.983-0.463c-0.887-0.006-1.646,0.171-1.735,0.405c-0.089,0.234-0.185,0.781-0.366,1.311	c-0.182,0.529-2.329,5.314-2.892,6.555c-0.287,0.632-0.536,1.14-0.712,1.486c-0.001-0.001-0.001-0.002-0.001-0.002	s-0.011,0.023-0.029,0.062c-0.151,0.295-0.24,0.458-0.24,0.458s0.001,0.002,0.003,0.006c-0.12,0.217-0.248,0.418-0.311,0.418	c-0.044,0-0.133-0.577,0.019-1.369c0.32-1.66,1.087-4.248,1.08-4.338c-0.004-0.046,0.143-0.497-0.501-0.733	c-0.626-0.229-0.849,0.153-0.906,0.154c-0.055,0.001-0.096,0.135-0.096,0.135s0.697-2.911-1.33-2.911	c-1.268,0-3.024,1.387-3.889,2.644c-0.546,0.298-1.715,0.936-2.954,1.617c-0.476,0.262-0.962,0.529-1.423,0.783	c-0.031-0.035-0.063-0.069-0.095-0.104c-2.459-2.623-7.003-4.478-6.811-8.005c0.07-1.282,0.516-4.658,8.733-8.752	c6.731-3.354,12.12-2.431,13.051-0.386c1.33,2.923-2.88,8.354-9.87,9.138c-2.663,0.299-4.066-0.734-4.415-1.118	c-0.367-0.405-0.422-0.423-0.559-0.347c-0.223,0.124-0.082,0.481,0,0.694c0.209,0.543,1.065,1.506,2.525,1.986	c1.285,0.422,4.412,0.653,8.193-0.81c4.236-1.638,7.543-6.196,6.571-10.005c-0.988-3.874-7.412-5.148-13.492-2.988	C12.44,9.332,8.523,11.35,5.706,13.984c-3.349,3.132-3.883,5.859-3.663,6.998c0.782,4.048,6.361,6.684,8.595,8.637	c-0.11,0.061-0.214,0.118-0.308,0.17c-1.12,0.554-5.373,2.78-6.437,5.131c-1.207,2.667,0.192,4.581,1.118,4.839	c2.869,0.798,5.813-0.638,7.396-2.998c1.582-2.359,1.389-5.432,0.663-6.834c-0.009-0.017-0.019-0.034-0.028-0.052	c0.289-0.171,0.584-0.345,0.876-0.517c0.57-0.335,1.13-0.647,1.615-0.911c-0.272,0.744-0.471,1.637-0.574,2.926	c-0.122,1.514,0.499,3.471,1.311,4.241c0.358,0.339,0.788,0.347,1.06,0.347c0.945,0,1.376-0.786,1.851-1.716	c0.582-1.14,1.099-2.468,1.099-2.468s-0.648,3.586,1.118,3.586c0.644,0,1.291-0.835,1.58-1.26c0.001,0.005,0.001,0.007,0.001,0.007	s0.017-0.028,0.05-0.083c0.067-0.102,0.105-0.167,0.105-0.167s0.001-0.007,0.003-0.019c0.259-0.449,0.833-1.473,1.693-3.162	c1.112-2.182,2.178-4.916,2.178-4.916s0.099,0.668,0.424,1.774c0.191,0.65,0.597,1.369,0.918,2.059	c-0.258,0.358-0.416,0.563-0.416,0.563s0.001,0.004,0.004,0.011c-0.206,0.274-0.437,0.569-0.679,0.857	c-0.878,1.045-1.923,2.239-2.063,2.583c-0.165,0.406-0.126,0.704,0.193,0.945c0.233,0.175,0.647,0.203,1.08,0.174	c0.789-0.053,1.343-0.249,1.617-0.368c0.427-0.151,0.924-0.388,1.39-0.731c0.861-0.633,1.38-1.538,1.33-2.738	c-0.028-0.661-0.238-1.316-0.505-1.934c0.078-0.112,0.156-0.226,0.235-0.34c1.357-1.984,2.41-4.164,2.41-4.164	s0.099,0.668,0.424,1.774c0.164,0.559,0.489,1.17,0.781,1.768c-1.276,1.037-2.067,2.242-2.342,3.032	c-0.508,1.462-0.11,2.124,0.636,2.275c0.338,0.068,0.816-0.087,1.175-0.239c0.447-0.148,0.984-0.395,1.486-0.764	c0.861-0.633,1.689-1.519,1.639-2.718c-0.023-0.546-0.171-1.088-0.372-1.608c1.082-0.451,2.482-0.701,4.266-0.493	c3.827,0.447,4.577,2.836,4.434,3.836c-0.144,1-0.946,1.55-1.215,1.716c-0.268,0.166-0.35,0.224-0.328,0.347	c0.033,0.179,0.157,0.173,0.386,0.134c0.315-0.053,2.009-0.813,2.082-2.659C46.089,28.509,43.844,25.935,39.867,25.956z M10.37,35.9	c-1.268,1.383-3.038,1.905-3.798,1.465c-0.82-0.475-0.495-2.511,1.06-3.979c0.948-0.894,2.172-1.718,2.984-2.225	c0.185-0.111,0.456-0.274,0.786-0.472c0.055-0.031,0.086-0.048,0.086-0.048l-0.001-0.002c0.064-0.038,0.129-0.077,0.196-0.118	C12.25,32.61,11.701,34.449,10.37,35.9z M19.605,29.623c-0.441,1.076-1.365,3.83-1.928,3.682c-0.483-0.127-0.777-2.22-0.096-4.28	c0.342-1.037,1.074-2.276,1.504-2.757c0.692-0.774,1.454-1.027,1.639-0.713C20.959,25.955,19.882,28.948,19.605,29.623z M27.234,33.263c-0.187,0.098-0.359,0.159-0.438,0.112c-0.059-0.035,0.077-0.164,0.077-0.164s0.954-1.027,1.33-1.494	c0.219-0.272,0.472-0.595,0.748-0.955c0.002,0.036,0.003,0.072,0.003,0.107C28.952,32.099,27.764,32.929,27.234,33.263z M33.111,31.923c-0.14-0.099-0.116-0.42,0.343-1.421c0.18-0.393,0.592-1.054,1.306-1.686c0.083,0.26,0.133,0.509,0.132,0.741	C34.883,31.105,33.779,31.683,33.111,31.923z"/>
        </svg>
    </g>


    <g id="react">
        <svg xmlns="http://www.w3.org/2000/svg" viewBox="0 0 100 100" width="131px" height="131px">
            <circle cx="50" cy="50" r="7" fill="#39c1d7"/>
            <path fill="#1f212b"
                  d="M50,58c-4.411,0-8-3.589-8-8s3.589-8,8-8s8,3.589,8,8S54.411,58,50,58z M50,44c-3.309,0-6,2.691-6,6	s2.691,6,6,6s6-2.691,6-6S53.309,44,50,44z"/>
            <path fill="#39c1d7"
                  d="M88.5,50c0-5.376-6.474-10.029-16.518-12.798c2.582-10.096,1.787-18.035-2.827-20.729	c-1.82-1.063-4.028-1.257-6.562-0.579C58.775,16.916,54.4,19.904,50,24.293c-4.4-4.389-8.775-7.376-12.593-8.399	c-2.534-0.679-4.742-0.484-6.562,0.579c-4.614,2.694-5.409,10.632-2.827,20.729C17.974,39.971,11.5,44.624,11.5,50	s6.474,10.029,16.518,12.799c-2.582,10.096-1.787,18.035,2.827,20.729c1.112,0.649,2.368,0.976,3.756,0.975	c0.883,0,1.82-0.132,2.806-0.396c3.818-1.023,8.193-4.01,12.593-8.399c4.4,4.389,8.775,7.376,12.593,8.399	c0.986,0.264,1.923,0.396,2.806,0.396c1.388,0,2.644-0.325,3.756-0.975c4.614-2.694,5.408-10.633,2.827-20.729	C82.026,60.029,88.5,55.376,88.5,50z M63.369,18.791c0.725-0.193,1.397-0.291,2.016-0.291c0.86,0,1.616,0.188,2.257,0.563	c3.092,1.806,3.723,8.42,1.42,17.411c-3.173-0.714-6.635-1.251-10.314-1.583c-2.159-3.113-4.405-5.947-6.668-8.429	C56.098,22.435,60.04,19.683,63.369,18.791z M60.755,56.299c-1.179,2.066-2.42,4.045-3.693,5.939C54.802,62.407,52.446,62.5,50,62.5	s-4.802-0.093-7.061-0.262c-1.273-1.894-2.514-3.873-3.693-5.939c-1.219-2.136-2.313-4.24-3.293-6.298	c0.98-2.058,2.074-4.162,3.293-6.299c1.18-2.067,2.42-4.046,3.694-5.94C45.199,37.593,47.554,37.5,50,37.5s4.801,0.093,7.061,0.262	c1.273,1.894,2.514,3.874,3.694,5.94c1.219,2.136,2.313,4.24,3.293,6.299C63.068,52.059,61.974,54.163,60.755,56.299z M65.644,53.545c1.041,2.461,1.901,4.83,2.597,7.082c-2.275,0.507-4.731,0.93-7.354,1.243c0.842-1.326,1.672-2.682,2.473-4.085	C64.171,56.366,64.928,54.951,65.644,53.545z M50,71.357c-1.636-1.809-3.269-3.812-4.864-5.979C46.728,65.455,48.348,65.5,50,65.5	s3.272-0.045,4.864-0.122C53.269,67.544,51.636,69.547,50,71.357z M39.112,61.87c-2.622-0.313-5.079-0.736-7.354-1.243	c0.696-2.252,1.556-4.622,2.597-7.082c0.716,1.406,1.474,2.821,2.284,4.24C37.441,59.189,38.27,60.545,39.112,61.87z M34.356,46.456	c-1.041-2.461-1.902-4.831-2.597-7.084c2.275-0.507,4.732-0.93,7.355-1.243c-0.843,1.326-1.672,2.683-2.473,4.086	C35.829,43.635,35.072,45.05,34.356,46.456z M50,28.644c1.636,1.809,3.269,3.812,4.864,5.979C53.272,34.545,51.652,34.5,50,34.5	s-3.272,0.045-4.864,0.122C46.731,32.456,48.364,30.453,50,28.644z M63.36,42.216c-0.801-1.404-1.631-2.76-2.473-4.086	c2.623,0.313,5.079,0.736,7.355,1.243c-0.696,2.253-1.556,4.622-2.597,7.084C64.928,45.05,64.171,43.635,63.36,42.216z M32.358,19.063C33,18.688,33.754,18.5,34.615,18.5c0.618,0,1.292,0.098,2.016,0.291c3.329,0.892,7.271,3.643,11.289,7.67	c-2.263,2.482-4.509,5.317-6.668,8.429c-3.679,0.332-7.142,0.869-10.314,1.583C28.635,27.482,29.266,20.868,32.358,19.063z M14.5,50	c0-3.596,5.401-7.44,14.335-9.901c0.969,3.159,2.241,6.486,3.806,9.901c-1.565,3.415-2.837,6.742-3.806,9.901	C19.901,57.44,14.5,53.596,14.5,50z M36.631,81.209c-1.733,0.462-3.17,0.371-4.273-0.271c-3.092-1.806-3.722-8.42-1.42-17.411	c3.172,0.714,6.635,1.251,10.313,1.583c2.159,3.113,4.405,5.947,6.668,8.43C43.902,77.566,39.96,80.317,36.631,81.209z M67.642,80.938c-1.103,0.644-2.539,0.734-4.273,0.271c-3.329-0.892-7.271-3.643-11.289-7.67c2.263-2.482,4.509-5.317,6.668-8.43	c3.679-0.332,7.141-0.869,10.313-1.583C71.365,72.518,70.734,79.132,67.642,80.938z M71.165,59.901	c-0.969-3.159-2.241-6.486-3.806-9.901c1.565-3.415,2.837-6.743,3.806-9.901C80.099,42.56,85.5,46.404,85.5,50	S80.099,57.44,71.165,59.901z"/>
            <path fill="#1f212b"
                  d="M34.595,85.002c-1.471,0-2.817-0.351-4.001-1.043c-4.632-2.705-5.783-10.276-3.178-20.811	C16.975,60.179,11,55.4,11,50s5.975-10.179,16.415-13.148c-2.604-10.535-1.453-18.106,3.179-20.811	c1.938-1.134,4.273-1.346,6.943-0.63c3.718,0.996,8.02,3.82,12.463,8.179c4.444-4.359,8.746-7.183,12.463-8.179	c2.669-0.714,5.005-0.502,6.944,0.63c4.631,2.705,5.782,10.276,3.178,20.811C83.025,39.821,89,44.6,89,50	s-5.975,10.179-16.415,13.148c2.604,10.535,1.454,18.105-3.178,20.811c-1.927,1.125-4.286,1.342-6.943,0.63	c-3.719-0.996-8.021-3.82-12.464-8.178c-4.443,4.358-8.745,7.183-12.463,8.178c-1.023,0.274-2.011,0.413-2.936,0.413	C34.599,85.002,34.597,85.002,34.595,85.002z M34.604,15.999c-1.301,0-2.474,0.302-3.507,0.906	c-4.224,2.467-5.194,10.008-2.595,20.173c0.067,0.264-0.089,0.534-0.352,0.606C18.038,40.472,12,45.077,12,50	s6.038,9.528,16.151,12.316c0.263,0.072,0.419,0.342,0.352,0.606c-2.6,10.165-1.63,17.707,2.594,20.173	c1.03,0.601,2.207,0.906,3.498,0.906c0.002,0,0.004,0,0.006,0c0.838,0,1.738-0.127,2.677-0.378c3.647-0.977,7.925-3.836,12.369-8.27	c0.195-0.194,0.511-0.194,0.706,0c4.444,4.433,8.722,7.292,12.369,8.27c2.394,0.639,4.485,0.461,6.181-0.528	c4.224-2.467,5.194-10.008,2.594-20.173c-0.067-0.264,0.089-0.534,0.352-0.606C81.962,59.528,88,54.923,88,50	s-6.038-9.528-16.151-12.316c-0.263-0.072-0.419-0.342-0.352-0.606c2.599-10.165,1.629-17.707-2.595-20.173	c-1.699-0.993-3.779-1.17-6.181-0.528c-3.647,0.977-7.924,3.836-12.369,8.27c-0.195,0.194-0.511,0.194-0.706,0	c-4.445-4.434-8.722-7.293-12.369-8.27C36.336,16.125,35.444,15.999,34.604,15.999z M65.386,81.999	c-0.663,0-1.379-0.102-2.146-0.307c-3.331-0.893-7.312-3.589-11.514-7.8c-0.188-0.189-0.195-0.493-0.016-0.69	c2.265-2.484,4.494-5.303,6.627-8.378c0.084-0.122,0.218-0.2,0.366-0.213c3.612-0.326,7.06-0.855,10.249-1.573	c0.261-0.059,0.527,0.101,0.594,0.364c2.336,9.123,1.703,16.008-1.652,17.967l0,0C67.175,81.789,66.336,81.999,65.386,81.999z M52.771,73.521c3.951,3.894,7.653,6.381,10.727,7.205c1.599,0.427,2.909,0.353,3.892-0.22l0,0	c2.855-1.668,3.357-8.073,1.306-16.387c-3.028,0.659-6.277,1.152-9.67,1.467C57.01,68.478,54.908,71.144,52.771,73.521z M34.614,81.999c-0.95,0-1.789-0.21-2.508-0.629c-3.355-1.96-3.989-8.845-1.652-17.968c0.067-0.262,0.333-0.419,0.594-0.364	c3.188,0.718,6.636,1.247,10.249,1.573c0.147,0.013,0.282,0.091,0.366,0.213c2.133,3.075,4.362,5.894,6.627,8.378	c0.18,0.197,0.173,0.501-0.016,0.69c-4.202,4.21-8.183,6.907-11.513,7.8h0C35.993,81.896,35.276,81.999,34.614,81.999z M31.304,64.119c-2.051,8.313-1.549,14.719,1.306,16.387c0.982,0.572,2.292,0.647,3.892,0.22l0,0	c3.074-0.824,6.776-3.312,10.727-7.205c-2.136-2.377-4.238-5.043-6.254-7.935C37.582,65.271,34.332,64.778,31.304,64.119z M50,71.856c-0.141,0-0.276-0.06-0.371-0.165c-1.663-1.839-3.31-3.864-4.896-6.018c-0.114-0.155-0.129-0.363-0.038-0.533	c0.091-0.17,0.261-0.274,0.465-0.263c3.306,0.161,6.374,0.161,9.68,0c0.2-0.012,0.374,0.093,0.465,0.263	c0.091,0.17,0.077,0.377-0.038,0.533c-1.586,2.153-3.233,4.178-4.896,6.018C50.276,71.796,50.141,71.856,50,71.856z M46.167,65.924	c1.251,1.655,2.537,3.226,3.833,4.684c1.297-1.458,2.582-3.028,3.833-4.684C51.221,66.024,48.779,66.024,46.167,65.924z M50,63	c-2.369,0-4.757-0.088-7.099-0.263c-0.153-0.011-0.292-0.092-0.378-0.22c-1.337-1.989-2.586-3.998-3.712-5.97	c-1.18-2.068-2.294-4.198-3.31-6.332c-0.065-0.136-0.065-0.294,0-0.43c1.016-2.134,2.13-4.264,3.31-6.332	c1.125-1.97,2.374-3.979,3.713-5.971c0.085-0.127,0.225-0.208,0.378-0.22c4.684-0.35,9.513-0.35,14.196,0	c0.153,0.011,0.292,0.092,0.378,0.22c1.339,1.992,2.588,4.001,3.713,5.971c1.18,2.068,2.294,4.198,3.31,6.332	c0.065,0.136,0.065,0.294,0,0.43c-1.016,2.134-2.13,4.264-3.31,6.332l0,0c-1.126,1.972-2.375,3.981-3.712,5.97	c-0.085,0.127-0.225,0.208-0.378,0.22C54.757,62.912,52.369,63,50,63z M43.218,61.757c4.479,0.322,9.085,0.322,13.563,0	c1.273-1.903,2.463-3.822,3.539-5.707c1.128-1.977,2.195-4.011,3.173-6.05c-0.978-2.039-2.045-4.074-3.173-6.05	c-1.075-1.883-2.265-3.802-3.54-5.708c-4.479-0.322-9.084-0.322-13.563,0c-1.274,1.906-2.465,3.825-3.54,5.708	c-1.128,1.977-2.195,4.011-3.173,6.05c0.978,2.039,2.045,4.074,3.173,6.05C40.755,57.936,41.945,59.854,43.218,61.757z M60.888,62.371c-0.17,0-0.331-0.087-0.423-0.233c-0.103-0.164-0.102-0.372,0.001-0.535c0.928-1.461,1.733-2.791,2.46-4.065	c0.764-1.338,1.528-2.758,2.273-4.219c0.088-0.173,0.273-0.276,0.463-0.272c0.194,0.007,0.367,0.125,0.443,0.305	c1.015,2.399,1.894,4.798,2.614,7.129c0.042,0.133,0.025,0.278-0.045,0.398c-0.07,0.121-0.188,0.207-0.324,0.237	c-2.35,0.525-4.841,0.946-7.403,1.252C60.927,62.37,60.907,62.371,60.888,62.371z M65.596,54.731	c-0.594,1.138-1.198,2.245-1.801,3.302c-0.583,1.022-1.216,2.079-1.92,3.209c1.97-0.262,3.89-0.593,5.727-0.987	C67.025,58.441,66.353,56.59,65.596,54.731z M39.112,62.371c-0.02,0-0.04-0.001-0.06-0.003C36.491,62.061,34,61.64,31.65,61.115	c-0.136-0.03-0.253-0.116-0.324-0.237c-0.07-0.121-0.086-0.265-0.045-0.398c0.72-2.332,1.599-4.73,2.614-7.129	c0.076-0.179,0.249-0.298,0.443-0.305c0.182-0.019,0.375,0.099,0.463,0.272c0.745,1.461,1.509,2.881,2.273,4.219	c0.728,1.274,1.533,2.604,2.46,4.065c0.104,0.163,0.104,0.371,0.001,0.535C39.443,62.284,39.283,62.371,39.112,62.371z M32.399,60.255c1.837,0.394,3.757,0.725,5.727,0.987c-0.705-1.13-1.337-2.187-1.92-3.209c-0.604-1.057-1.207-2.165-1.801-3.302	C33.647,56.59,32.975,58.441,32.399,60.255z M71.165,60.401c-0.215,0-0.412-0.139-0.478-0.354c-0.975-3.179-2.248-6.489-3.782-9.838	c-0.061-0.132-0.061-0.285,0-0.417c1.534-3.349,2.807-6.66,3.783-9.84c0.08-0.259,0.354-0.404,0.611-0.335	C80.367,42.116,86,46.094,86,50s-5.634,7.884-14.703,10.383C71.253,60.395,71.208,60.401,71.165,60.401z M67.909,50	c1.436,3.155,2.643,6.277,3.589,9.288C79.717,56.945,85,53.322,85,50s-5.283-6.945-13.502-9.288	C70.551,43.724,69.344,46.846,67.909,50z M28.835,60.401c-0.044,0-0.088-0.006-0.133-0.018C19.634,57.884,14,53.906,14,50	s5.633-7.884,14.702-10.383c0.258-0.069,0.531,0.076,0.611,0.335c0.976,3.18,2.249,6.491,3.783,9.84	c0.061,0.132,0.061,0.284,0,0.417c-1.535,3.35-2.807,6.66-3.782,9.838C29.248,60.262,29.05,60.401,28.835,60.401z M28.502,40.712	C20.283,43.055,15,46.678,15,50s5.283,6.945,13.502,9.288c0.947-3.011,2.153-6.132,3.589-9.288	C30.656,46.846,29.449,43.724,28.502,40.712z M65.645,46.957c-0.188,0-0.36-0.105-0.446-0.273c-0.757-1.488-1.501-2.869-2.272-4.22	l0,0c-0.726-1.272-1.531-2.602-2.461-4.066c-0.104-0.163-0.104-0.371-0.001-0.535c0.103-0.163,0.287-0.253,0.483-0.23	c2.563,0.307,5.054,0.728,7.404,1.252c0.136,0.03,0.253,0.116,0.324,0.237c0.07,0.121,0.086,0.265,0.045,0.398	c-0.721,2.336-1.601,4.735-2.614,7.131c-0.076,0.179-0.249,0.298-0.443,0.305C65.656,46.957,65.65,46.957,65.645,46.957z M63.794,41.968c0.611,1.07,1.205,2.158,1.801,3.302c0.756-1.856,1.428-3.709,2.005-5.525c-1.837-0.394-3.757-0.725-5.728-0.987	C62.58,39.89,63.212,40.947,63.794,41.968L63.794,41.968z M34.355,46.957c-0.006,0-0.012,0-0.018,0	c-0.194-0.007-0.367-0.125-0.443-0.305c-1.013-2.396-1.893-4.795-2.614-7.131c-0.042-0.133-0.025-0.278,0.045-0.398	c0.07-0.121,0.188-0.207,0.324-0.237c2.35-0.525,4.841-0.946,7.404-1.252c0.195-0.02,0.38,0.067,0.483,0.23	c0.103,0.164,0.102,0.372-0.001,0.535c-0.93,1.464-1.735,2.794-2.461,4.066c-0.771,1.351-1.515,2.731-2.272,4.22	C34.715,46.852,34.543,46.957,34.355,46.957z M32.399,39.745c0.577,1.816,1.25,3.669,2.005,5.525	c0.597-1.144,1.19-2.232,1.801-3.302c0.583-1.021,1.215-2.078,1.921-3.21C36.156,39.02,34.236,39.351,32.399,39.745z M69.063,36.974	c-0.037,0-0.073-0.004-0.11-0.012c-3.188-0.718-6.637-1.247-10.25-1.573c-0.147-0.013-0.282-0.091-0.366-0.213	c-2.133-3.076-4.363-5.894-6.627-8.377c-0.18-0.197-0.173-0.501,0.016-0.69c4.201-4.21,8.183-6.908,11.514-7.8h0	c1.869-0.5,3.438-0.387,4.654,0.322c3.355,1.96,3.989,8.845,1.653,17.968C69.489,36.823,69.287,36.974,69.063,36.974z M59.025,34.414c3.393,0.315,6.643,0.808,9.671,1.467c2.051-8.313,1.549-14.719-1.307-16.387c-0.979-0.571-2.291-0.646-3.891-0.22	c-3.074,0.824-6.777,3.312-10.728,7.206C54.907,28.855,57.009,31.521,59.025,34.414z M30.937,36.974	c-0.224,0-0.426-0.151-0.484-0.376c-2.336-9.123-1.703-16.007,1.652-17.967c0,0,0,0,0.001,0c1.216-0.709,2.787-0.822,4.653-0.322	c3.332,0.893,7.313,3.59,11.514,7.8c0.188,0.189,0.195,0.493,0.016,0.69c-2.264,2.483-4.494,5.302-6.627,8.377	c-0.084,0.122-0.218,0.2-0.366,0.213c-3.612,0.326-7.061,0.855-10.25,1.573C31.01,36.97,30.974,36.974,30.937,36.974z M32.61,19.494	c-2.855,1.668-3.357,8.074-1.307,16.387c3.028-0.659,6.278-1.152,9.671-1.467c2.017-2.893,4.118-5.559,6.254-7.935	c-3.951-3.894-7.653-6.382-10.728-7.206C34.907,18.848,33.593,18.922,32.61,19.494L32.61,19.494z M54.864,35.122	c-0.008,0-0.016,0-0.024,0c-3.306-0.161-6.373-0.161-9.679,0c-0.206,0.005-0.374-0.094-0.465-0.263	c-0.091-0.17-0.077-0.377,0.038-0.533c1.587-2.155,3.234-4.18,4.896-6.018c0.19-0.209,0.552-0.209,0.742,0	c1.661,1.837,3.308,3.862,4.896,6.018c0.114,0.155,0.129,0.363,0.038,0.533C55.217,35.021,55.047,35.122,54.864,35.122z M50,34	c1.242,0,2.527,0.026,3.833,0.077c-1.252-1.657-2.538-3.228-3.833-4.684c-1.295,1.457-2.581,3.027-3.833,4.684	C47.473,34.026,48.758,34,50,34z"/>
        </svg>
    </g>

    <g id="git">
        <svg xmlns="http://www.w3.org/2000/svg" viewBox="0 0 48 48" width="131px" height="131px">
            <path fill="#F4511E"
                  d="M42.2,22.1L25.9,5.8C25.4,5.3,24.7,5,24,5c0,0,0,0,0,0c-0.7,0-1.4,0.3-1.9,0.8l-3.5,3.5l4.1,4.1c0.4-0.2,0.8-0.3,1.3-0.3c1.7,0,3,1.3,3,3c0,0.5-0.1,0.9-0.3,1.3l4,4c0.4-0.2,0.8-0.3,1.3-0.3c1.7,0,3,1.3,3,3s-1.3,3-3,3c-1.7,0-3-1.3-3-3c0-0.5,0.1-0.9,0.3-1.3l-4-4c-0.1,0-0.2,0.1-0.3,0.1v10.4c1.2,0.4,2,1.5,2,2.8c0,1.7-1.3,3-3,3s-3-1.3-3-3c0-1.3,0.8-2.4,2-2.8V18.8c-1.2-0.4-2-1.5-2-2.8c0-0.5,0.1-0.9,0.3-1.3l-4.1-4.1L5.8,22.1C5.3,22.6,5,23.3,5,24c0,0.7,0.3,1.4,0.8,1.9l16.3,16.3c0,0,0,0,0,0c0.5,0.5,1.2,0.8,1.9,0.8s1.4-0.3,1.9-0.8l16.3-16.3c0.5-0.5,0.8-1.2,0.8-1.9C43,23.3,42.7,22.6,42.2,22.1z"/>
        </svg>
    </g>

    <g id="bootstrap">
        <svg xmlns="http://www.w3.org/2000/svg" viewBox="0 0 48 48" width="131px" height="131px" baseProfile="basic">
            <path fill="#7c4dff"
                  d="M7.373,11.443C7.293,9.132,9.094,7,11.529,7h24.946c2.435,0,4.236,2.132,4.155,4.443	c-0.077,2.221,0.023,5.097,0.747,7.443c0.726,2.353,1.951,3.84,3.957,4.031v2.167c-2.006,0.191-3.23,1.678-3.957,4.031	c-0.724,2.345-0.824,5.222-0.747,7.443C40.71,38.868,38.909,41,36.475,41H11.529c-2.434,0-4.236-2.132-4.155-4.443	c0.077-2.221-0.023-5.097-0.747-7.443c-0.726-2.353-1.954-3.84-3.96-4.031v-2.167c2.006-0.191,3.233-1.678,3.96-4.031	C7.35,16.54,7.451,13.664,7.373,11.443z"/>
            <path fill="#fff"
                  d="M27.073,23.464v-0.028c1.853-0.32,3.299-2.057,3.299-3.97c0-1.352-0.52-2.498-1.504-3.312	c-0.981-0.812-2.357-1.241-3.981-1.241H17.45V33.08h7.475c1.942,0,3.555-0.474,4.663-1.372c1.109-0.899,1.696-2.207,1.696-3.783	C31.283,25.544,29.593,23.756,27.073,23.464z M23.59,22.608h-3.181V17.29h3.784c2.076,0,3.219,0.911,3.219,2.565	C27.413,21.63,26.055,22.608,23.59,22.608z M20.409,24.834h3.759c2.716,0,4.092,0.981,4.092,2.916c0,1.932-1.357,2.953-3.925,2.953	h-3.926V24.834z"/>
        </svg>
    </g>

    <g id="cib">
        <path d="M67.8306 119.745C66.2668 119.471 64.6468 118.729 63.7281 117.908C63.1044 117.253 62.7485 116.389 62.7306 115.485C62.7306 114.566 63.1993 113.276 63.9418 111.99C64.3918 111.266 64.7443 110.486 64.9956 109.665C65.1531 109.099 65.4831 108.18 65.7381 107.595L66.1881 106.523L66.3043 99.3563C66.3643 95.3925 66.4806 91.7213 66.5781 91.1513C66.8331 89.5088 67.2606 87.9075 67.8268 86.3475L68.2581 85.3125L67.6318 84.9413C67.0656 84.5888 66.5968 84.1013 64.7406 81.8925C62.4568 79.1963 59.4493 77.7113 55.1893 77.205C53.8018 77.07 52.3956 76.9688 50.9893 76.9125C44.7381 76.62 41.1643 75.3113 37.9431 72.1463C35.5393 69.7838 34.2906 67.0275 33.7843 62.9663C33.1018 57.4763 32.3406 54.6638 30.9343 52.38C30.5877 51.816 30.1885 51.2861 29.7418 50.7975L29.1756 50.2313L27.9268 51.0338C27.2443 51.4838 26.2843 52.05 25.8156 52.305C24.2518 53.1638 22.7668 54.12 21.3418 55.155C17.8468 57.6938 14.0368 60.8775 11.9481 62.9663C11.0106 63.9038 10.5231 64.3125 10.3056 64.275C8.88058 64.0613 9.97183 57.8888 12.2968 53.2388C15.2668 47.2425 20.2656 41.715 26.0481 37.9838C30.7956 34.9163 38.4718 30.6975 42.0231 29.2125C48.3306 26.5763 56.4943 23.7225 62.0818 22.2C63.2556 21.8663 63.9756 21.5738 64.4631 21.2438C65.5581 20.4825 66.6306 20.1113 67.8606 20.0925C68.8956 20.0738 68.9931 20.055 69.9906 19.3875C71.1643 18.6263 71.5131 18.585 72.6868 18.9975L73.4481 19.2713L74.3856 18.6263L75.3231 18L76.6693 18.0188C77.7043 18.0375 78.1731 18 78.6231 17.805C79.1893 17.55 79.2081 17.5125 79.3656 16.575C79.7181 14.5425 79.7556 13.5263 79.5418 12.2963C79.2681 10.6763 79.2306 4.3875 79.5043 3.15375C79.7968 1.82625 79.9918 1.5525 80.9893 1.065C82.4743 0.341252 83.5881 0.127502 86.1456 0.127502C89.2693 0.127502 90.8518 0.558753 92.0256 1.69125C93.0793 2.7075 93.2556 5.08875 92.7081 10.6763C92.3743 13.8975 92.3368 14.7975 92.4343 16.905C92.4718 18.2513 92.5693 19.5225 92.6106 19.6988C92.6893 20.0325 92.7681 20.0513 93.9006 20.07C95.0143 20.0888 95.2093 20.1488 96.2631 20.6963C97.2793 21.225 98.0406 21.87 98.1981 22.3388C98.2168 22.4363 98.3931 22.4363 98.7043 22.3388C99.3081 22.1625 99.8368 22.3575 100.268 22.8863C100.523 23.22 100.677 23.2763 101.266 23.2763C102.068 23.2763 102.361 23.4713 103.024 24.45C103.335 24.8893 103.76 25.2344 104.254 25.4475C105.349 25.995 106.834 27.5175 107.401 28.7288C108.278 30.525 108.454 32.6138 107.907 34.4888C107.712 35.1938 107.712 35.2125 108.121 35.895C108.979 37.3613 109.294 39.1575 108.942 40.68L108.747 41.58L109.332 42.165C112.242 45.075 111.811 49.8225 108.259 54.06C107.862 54.544 107.527 55.0756 107.262 55.6425C106.579 57.4575 105.796 58.7288 104.783 59.7825L103.748 60.8363H102.694C101.641 60.8363 100.156 60.4838 99.2556 60.015C98.8843 59.82 98.8656 59.82 98.9443 60.0525C99.1806 60.9113 99.7656 64.4063 99.9606 66.3413C100.272 69.3113 100.174 73.6275 99.7656 75.4838C99.4669 76.8586 98.9664 78.1816 98.2806 79.41C97.8906 80.0363 97.8718 80.1713 97.9468 80.9325C98.0631 82.005 97.8118 83.805 97.3806 84.9938C96.8518 86.3813 96.6568 87.0263 96.5406 87.7275C96.4431 88.3313 96.4431 88.3313 96.8743 88.3313C97.4406 88.3313 97.7518 88.665 97.7518 89.3288C97.7518 89.6213 97.4968 91.2038 97.1856 92.8238C96.3268 97.3763 96.2668 97.8825 96.2668 102.296C96.2481 106.849 96.2481 106.808 97.2831 107.49L99.6081 108.994C101.608 110.321 103.75 111.422 105.994 112.275C109.257 113.565 109.707 113.895 109.707 114.99C109.707 115.478 109.609 115.654 109.201 116.044C107.952 117.255 105.488 117.529 100.527 117C97.9488 116.758 95.3611 116.635 92.7718 116.629C85.9356 116.531 84.9381 116.295 84.0418 114.596C83.5356 113.621 83.6331 112.35 84.3343 110.261C84.6456 109.343 84.9193 108.405 85.1556 107.449C85.6243 105.184 85.3131 102.488 84.2181 99.4425L83.2806 96.8438C82.3618 94.2075 81.8556 89.3813 82.4031 88.29C82.5006 88.0763 82.6768 88.035 83.1456 88.0538L83.7306 88.1138L84.2181 87.0975C84.5893 86.295 84.9981 85.77 86.1118 84.6563L87.5368 83.2313L87.4581 82.3125C87.3981 81.435 86.2468 77.175 86.0893 77.1938C86.0293 77.1938 85.7181 77.625 85.3656 78.1688C84.5068 79.4588 82.6131 81.45 81.5368 82.1738C81.0681 82.485 80.6781 82.8563 80.6781 82.9763C80.6593 83.505 80.2093 84.54 79.6618 85.26C79.1331 85.965 79.0956 86.0813 79.1743 86.7038C79.3093 87.6225 79.0168 90.57 78.6681 92.115C78.352 93.2622 77.9197 94.3742 77.3781 95.4338C76.0318 98.2275 75.0156 100.725 74.7606 101.88C74.5764 102.992 74.4587 104.114 74.4081 105.24C74.3481 106.568 74.2131 107.858 74.1156 108.131C73.9806 108.503 73.9806 108.795 74.0968 109.361C74.1943 109.77 74.2543 110.689 74.2318 111.413C74.2131 112.41 74.2918 113.055 74.5843 114.225C75.0906 116.216 75.1881 117.469 74.9556 118.211C74.7981 118.68 74.6443 118.856 74.1156 119.111C72.9418 119.715 69.6231 120.049 67.8268 119.738L67.8306 119.745ZM72.5743 118.144C73.2568 117.949 73.8456 117.364 73.8456 116.835C73.8456 116.599 73.6506 115.916 73.4143 115.313C72.9456 114.161 72.1431 111.113 72.1431 110.606C72.1431 110.351 72.1618 110.333 72.5518 110.546L72.9831 110.783V110.235C72.9205 109.73 72.8087 109.233 72.6493 108.75C72.2781 107.636 72.2406 107.618 69.8743 107.479L68.2731 107.4L67.6881 107.966C67.3664 108.297 67.0845 108.665 66.8481 109.061C66.5931 109.568 66.4956 110.333 66.6531 110.505C66.6906 110.565 67.0843 110.505 67.5118 110.408C67.7656 110.332 68.0274 110.287 68.2918 110.273C68.2918 110.291 67.8606 110.644 67.3168 111.015C64.9731 112.774 64.1518 113.846 64.1518 115.215C64.1518 116.64 65.4981 117.754 67.6093 118.088C69.0531 118.301 71.8656 118.361 72.5706 118.148L72.5743 118.144ZM104.352 115.819C104.937 115.114 104.858 114.394 104.116 113.573C103.684 113.141 103.197 112.77 102.649 112.478C102.102 112.185 101.554 111.851 101.007 111.503C100.017 110.861 98.9994 110.261 97.9581 109.706C97.0581 109.219 96.1806 108.709 95.3218 108.165L94.9693 107.891V102.521C94.9693 97.23 94.9506 97.1513 94.6768 97.23C93.3081 97.6013 91.0431 97.7775 88.1743 97.7175L85.0693 97.68L85.5193 98.775C86.3593 100.845 86.7906 103.62 86.7906 106.804C86.7906 107.996 86.7118 108.424 86.4193 109.264C86.2618 109.673 86.1268 110.085 85.9881 110.494C85.9281 110.67 86.1456 110.805 86.9443 111.041C87.5293 111.218 88.3881 111.394 88.8793 111.45L89.7793 111.548L89.6818 112.448C89.5843 113.464 89.7006 114.536 89.9556 114.87C90.1131 115.065 90.6981 115.144 93.4131 115.26C95.4643 115.358 97.6918 115.571 99.4468 115.826C100.969 116.063 102.612 116.258 103.099 116.258C103.921 116.276 103.999 116.239 104.348 115.826L104.352 115.819ZM73.0843 106.68C73.1631 106.62 73.2793 105.566 73.3206 104.318C73.4781 100.823 73.6131 100.313 75.3718 96.3675C76.8156 93.1463 77.5806 90.1388 77.5206 88.0088L77.4831 86.7375L76.9356 87.2663C75.8031 88.3988 76.5831 86.6213 77.9331 85.0388C78.9493 83.8275 79.3018 83.1638 79.4556 82.0913C79.5343 81.66 79.6918 81.4463 80.3556 80.94C82.8391 79.0639 84.7527 76.5349 85.8831 73.635C86.1568 72.93 86.8581 70.53 87.4468 68.3025C88.5418 64.1813 89.1268 62.4038 89.6556 61.6425C89.8506 61.35 89.9293 61.29 89.8918 61.485C89.6086 62.5324 89.387 63.5955 89.2281 64.6688C89.0706 65.625 88.7781 67.5 88.5831 68.8088C88.2118 71.4863 87.8218 73.2038 87.2931 74.5313L86.9406 75.4313L87.8781 77.8538C88.8531 80.3325 89.3031 82.1325 89.3818 83.8688L89.4418 84.8438L88.6806 85.0013C87.6758 85.1791 86.7792 85.7396 86.1793 86.565C85.5156 87.5213 85.1443 88.305 85.3206 88.4775C85.3993 88.5563 86.3556 88.7325 87.4506 88.8675C89.1493 89.0625 89.7943 89.0625 92.0406 88.9275C93.0156 88.89 93.9756 88.7925 94.9318 88.6538C95.1456 88.575 95.3631 88.1475 95.7118 87.0338C96.5143 84.4763 96.6681 83.5763 96.5706 81.78L96.4918 80.1975L96.9006 79.6688C97.8568 78.4575 98.5993 76.2713 98.9106 73.71C99.2818 70.5863 98.5993 64.0425 97.3281 58.4175C96.7243 55.74 96.4693 54.1388 96.4693 52.9688V51.9338L95.5131 52.0313C92.0743 52.4025 87.9156 52.305 85.3768 51.7763C83.9893 51.5025 80.4943 50.4675 79.7331 50.1338L79.1293 49.86L79.0506 50.5425C78.9906 50.9138 78.9343 51.285 78.8556 51.675C78.7393 52.0838 78.7768 52.1813 79.5006 52.8863C80.4006 53.805 80.6743 54.2738 80.6743 54.8963C80.6743 55.2863 80.4606 55.6013 79.3656 56.7338C78.5805 57.5715 77.7094 58.3244 76.7668 58.98L75.4956 59.8388L74.9481 61.7325C72.9943 68.6663 72.6231 74.9738 73.9131 79.485L74.2243 80.6175L73.5981 81.3975C71.2543 84.345 69.8668 86.5913 69.6531 87.8438C69.5281 88.4605 69.3843 89.0733 69.2218 89.6813C68.7156 91.6163 68.3218 94.4475 68.1493 97.515C68.0291 100.083 67.8604 102.648 67.6431 105.21L67.5456 105.971L68.5206 106.264C69.0681 106.44 69.8893 106.635 70.3581 106.714C71.2356 106.849 72.8593 106.811 73.1106 106.676L73.0843 106.68ZM92.0481 95.9363C93.5706 95.8388 94.9581 95.6025 95.2318 95.37C95.3481 95.2913 95.4868 94.8825 95.5243 94.47L95.6218 93.7275L94.4106 94.0013C93.4543 94.1963 92.4981 94.3125 91.5381 94.3913C89.2318 94.4888 86.9106 94.4288 84.6231 94.1963C83.8618 94.08 83.8618 94.08 84.0943 95.0738C84.2893 95.8163 84.3306 95.8538 86.3218 95.9925C87.6493 96.1088 89.5056 96.09 92.0443 95.9325L92.0481 95.9363ZM90.7768 92.5388C92.7681 92.3625 95.2506 91.935 95.7381 91.68C95.8956 91.6013 96.0306 91.3088 96.0906 90.975L96.2668 89.94L96.3643 89.4525L95.8768 89.55C93.7093 90 92.0668 90.135 88.7856 90.135C85.5831 90.135 85.2118 90.1163 84.3718 89.8238C84.049 89.6877 83.7053 89.6078 83.3556 89.5875C83.2206 89.6663 83.1981 90.78 83.3181 91.56C83.3968 92.0288 83.4756 92.1075 83.9443 92.2425C85.4293 92.6513 87.9306 92.7488 90.7806 92.5163L90.7768 92.5388ZM54.5293 74.9213C59.5281 73.4775 66.0718 69.2363 71.4231 63.9263C73.1631 62.1863 73.3768 61.9538 73.6093 61.1738L73.9206 60.1763C73.9581 60.0975 73.6468 59.9625 73.2381 59.865C72.1656 59.61 71.3443 58.9875 71.3443 58.4213C71.3443 58.0875 71.1493 57.7575 70.5831 57.15C69.6643 56.115 69.4318 55.665 69.3343 54.6713L69.2556 53.8688L68.1606 53.0888C67.5343 52.6388 65.3481 51.4275 63.0231 50.2575C61.2528 49.3939 59.52 48.4555 57.8293 47.445C55.8756 46.1363 54.5668 44.5725 53.8243 42.72C53.6893 42.3488 53.5131 42.0375 53.4531 42.0375C53.2956 42.0375 48.9006 46.275 47.0256 48.2663C42.3981 53.1488 39.2143 57.3863 37.2006 61.3125C36.6943 62.2875 36.1468 63.4425 35.9893 63.87L35.6968 64.65L36.0493 65.9588C36.2631 66.6638 36.7131 67.815 37.0656 68.4975C38.2956 70.92 39.7618 72.3825 42.1843 73.575C44.7831 74.865 47.0856 75.315 50.9331 75.255C53.0031 75.2363 53.6106 75.1763 54.5256 74.9025L54.5293 74.9213ZM15.0756 57.7913C18.3568 54.8813 22.8868 51.6975 28.4368 48.3975C32.0706 46.23 46.1143 39.1988 52.5793 36.3263C53.7531 35.7975 54.8068 35.31 54.9231 35.2538C55.0393 35.175 55.3731 34.335 55.6843 33.3975C57.0531 29.0625 57.7356 28.2038 60.2143 27.6375C60.5256 27.5588 60.6043 27.4613 60.6043 27.15C60.6043 26.5838 60.9943 25.275 61.3281 24.69C61.5831 24.24 61.5831 24.2213 61.3656 24.2813C61.2306 24.3188 60.4093 24.555 59.5506 24.81C47.6368 28.2488 37.2268 32.8163 28.2418 38.52C18.6531 44.6138 13.1256 51.9188 11.5243 60.6675L11.4081 61.3125L12.5818 60.1613C13.2081 59.5163 14.3406 58.4625 15.0831 57.8175L15.0756 57.7913ZM103.456 59.4525C104.412 58.965 105.897 56.7188 106.444 54.9413C106.602 54.315 106.913 53.73 107.363 53.2425C108.807 51.6413 109.999 48.7313 110.018 46.74C110.018 43.635 108.259 42.4425 105.702 43.77C105.368 43.9275 105.098 44.0438 105.057 44.0063C104.922 43.8713 105.642 43.1663 106.523 42.6188C107.674 41.8575 107.892 41.4075 107.892 39.7875C107.909 38.4781 107.52 37.1955 106.778 36.1163C106.426 35.5875 106.291 35.2388 106.347 35.0213L106.699 33.7125C107.187 31.9725 107.011 29.9813 106.249 28.7138C105.117 26.8013 103.729 25.8638 101.794 25.7063L100.662 25.6275L101.326 26.37C103.298 28.5 104.254 31.1738 103.864 33.4613C103.669 34.635 103.493 34.8675 102.361 35.3175L101.697 35.5913L101.776 36.4913C101.911 37.9575 101.659 39.03 100.722 41.0025C100.253 42 99.9006 42.8963 99.9418 42.9938C100.058 43.3275 101.348 43.95 102.364 44.205L103.362 44.4413L102.736 44.655C101.914 44.91 101.738 45.2813 101.738 46.6275C101.738 47.8575 101.914 48.3675 102.811 49.7138C103.219 50.2988 103.493 50.9063 103.534 51.255C103.613 51.8025 103.594 51.84 103.144 51.9975C102.634 52.1407 102.11 52.2262 101.581 52.2525C99.7431 52.3688 99.6081 52.4288 98.7868 53.2088C98.0443 53.9138 98.0256 53.9513 98.0256 54.7313C98.0256 55.8038 98.4343 57.975 98.6893 58.2675C99.0231 58.62 100.876 59.5388 101.599 59.6738C102.224 59.8305 102.883 59.7545 103.456 59.46V59.4525ZM76.4031 57.99C77.5956 57.0525 78.5331 56.115 79.0581 55.3125C79.3918 54.825 79.4106 54.7275 79.2531 54.315C78.9793 53.6888 77.1831 52.0688 76.1856 51.5813C75.5209 51.2835 74.8179 51.0802 74.0968 50.9775L72.8668 50.82L72.1056 49.8638C70.5231 47.91 69.6456 46.3875 68.3931 43.4363C67.2981 40.935 66.3418 39.4725 64.8193 38.025C64.1931 37.44 63.7468 36.9525 63.7843 36.9525C63.8631 36.9525 64.6056 37.3238 65.4643 37.7738C66.8893 38.535 67.0656 38.595 67.7106 38.4975C70.0356 38.2238 72.0868 35.55 72.8293 31.8C73.0431 30.7463 73.4743 29.67 73.9243 29.025C73.9431 29.0063 74.8431 29.5913 75.8968 30.3525C78.5743 32.2463 79.1593 32.5388 80.6818 32.5988C81.6793 32.6363 82.2456 32.5613 84.0418 32.13C87.8706 31.1925 92.0106 30.8213 94.5306 31.155C95.9556 31.35 98.0068 31.9763 99.5293 32.6963C101.033 33.4013 101.326 33.4388 101.813 33.0075C102.222 32.655 102.222 32.5988 102.222 31.29C102.203 29.355 101.498 27.2663 100.426 26.0175C99.8781 25.3725 98.3368 24.3188 96.8106 23.5163C96.268 23.2285 95.728 22.936 95.1906 22.6388C94.4668 22.2075 93.6493 22.2675 91.4218 22.8525C88.8418 23.5163 88.1593 23.5163 85.2118 22.755C82.7106 22.1288 82.5568 22.11 80.0931 22.5C78.7843 22.695 75.5031 22.5788 74.4081 22.2863C73.8606 22.1288 73.3131 21.975 72.7881 21.78C71.8318 21.4088 70.1706 21.3488 68.6668 21.6225C65.6781 22.1513 63.4131 23.7713 62.5918 25.9763C62.1606 27.09 62.2206 27.6188 62.7868 27.9675C63.6868 28.5338 64.8756 30.0788 64.8756 30.6825C64.8756 30.72 64.5831 30.4688 64.2493 30.1163C63.4093 29.2388 62.6481 28.845 61.7481 28.845C61.1658 28.8612 60.5996 29.0397 60.1132 29.3603C59.6269 29.681 59.2398 30.1311 58.9956 30.66C58.7328 31.35 58.5112 32.055 58.3318 32.7713C57.7843 34.7625 57.2968 35.82 56.2618 37.2263C55.3431 38.4975 55.2081 39.0638 55.5381 40.4888C56.3593 44.0813 57.7843 45.5288 63.7393 48.9075C66.8631 50.685 68.4643 51.6825 69.6381 52.56C70.5381 53.2238 70.5568 53.265 70.4781 53.7713C70.3018 54.945 71.0443 56.2125 72.5106 57.2475C72.8818 57.5025 73.1143 57.7763 73.1143 57.9713C73.1143 58.3238 74.1118 58.8113 74.8318 58.8113C75.2406 58.8113 75.5556 58.635 76.3956 57.99H76.4031ZM100.486 51.405C102.751 51.4838 102.867 51.3075 101.659 49.9013C100.388 48.435 100.039 47.2463 100.508 45.9375L100.703 45.4313L99.9006 45.0413C99.6268 44.9063 99.3531 44.7675 99.0793 44.67C98.9443 45.1988 98.8056 45.705 98.6893 46.2338C98.3968 47.4263 98.0443 50.5125 98.0256 51.8213C98.0256 51.9375 98.2206 51.9 98.5543 51.6863C99.0231 51.4125 99.2593 51.375 100.489 51.4125L100.486 51.405ZM92.8881 51.2888C94.2568 51.21 95.6631 51.1125 96.0343 51.0525L96.7168 50.955L96.7956 48.7088C96.9118 45.5063 97.3806 43.6125 98.7681 40.5825C99.7431 38.4338 100.174 36.5588 99.9606 35.1525C99.8818 34.5488 99.8443 34.5075 99.0231 34.155C97.5193 33.5579 95.9533 33.1315 94.3543 32.8838C92.8131 32.67 88.2793 32.7863 86.5806 33.12C85.8756 33.2363 84.5893 33.51 83.7306 33.7238C81.6006 34.2113 80.4681 34.155 78.8481 33.45C77.2468 32.745 76.2306 32.1038 75.2743 31.2038C74.5131 30.4988 74.4343 30.4613 74.2393 30.6975C74.0818 30.8738 74.0031 31.4025 73.9468 32.535C73.8868 34.275 73.6131 35.19 72.8518 36.42C72.6827 36.6731 72.5383 36.9418 72.4206 37.2225C72.4206 37.2825 73.0056 37.965 73.7293 38.7075C76.2306 41.3063 77.4606 41.97 79.4331 41.8313C80.0781 41.7713 80.5281 41.7938 80.5281 41.8688C80.5281 42.0263 79.2568 43.02 78.7318 43.2938C78.4768 43.4288 78.4206 43.5675 78.4581 43.86L78.7693 45.9113C78.9456 47.085 79.0806 47.6288 79.2568 47.7863C79.7256 48.1763 82.1481 49.4288 83.6706 50.0513C85.6618 50.8538 86.7568 51.1463 88.2793 51.2813C90.1543 51.4388 90.1918 51.4388 92.8881 51.2813V51.2888ZM76.7368 49.14C76.7743 49.08 76.6393 47.9475 76.3843 46.6388C76.0731 44.8613 75.8968 44.2163 75.7018 44.04C75.5668 43.9238 74.8431 43.4138 74.1193 42.8888C73.1684 42.205 72.2674 41.4543 71.4231 40.6425L70.0768 39.315L69.3531 39.6863L68.5918 40.095C68.6559 40.4001 68.7606 40.6952 68.9031 40.9725C69.1168 41.4413 69.5481 42.5925 69.8593 43.53C70.6806 45.9713 71.3256 47.145 72.9456 49.2713L73.5493 50.0738L74.7006 50.25C75.3456 50.3475 75.9906 50.4863 76.1668 50.5425C76.4406 50.6588 76.4781 50.6025 76.5568 49.9763C76.5943 49.7025 76.6543 49.41 76.7331 49.1363L76.7368 49.14ZM101.483 24.8438C102.481 24.7463 102.657 24.6075 102.226 24.1613C101.952 23.8875 101.326 23.8688 100.819 24.1013C100.486 24.2588 100.411 24.2175 99.8818 23.6513C99.3343 23.0475 99.2968 23.025 98.6106 23.1038C97.9843 23.1825 97.8868 23.1638 97.8081 22.9088C97.5642 22.4899 97.2611 22.1084 96.9081 21.7763C96.4645 21.2722 95.91 20.8781 95.2881 20.625C94.0768 20.1563 93.3943 20.2163 92.2393 20.8613C88.8981 22.6763 89.0368 22.6575 85.8118 21.8363C82.8043 21.075 80.5581 20.295 79.8343 19.8038C79.2306 19.395 77.9406 18.945 76.8643 18.8063C76.0618 18.69 75.5556 18.8663 74.7943 19.4888L74.3856 19.8225L74.7568 20.4675C75.2631 21.3675 75.2068 21.4238 74.4456 20.76C73.6243 20.0775 72.6493 19.6088 72.0231 19.5863C71.5731 19.5863 70.2456 20.1713 70.0881 20.4263C70.0281 20.505 70.4406 20.6025 70.9881 20.64C71.5543 20.7 72.3343 20.895 72.8631 21.1088C74.2318 21.6938 74.9331 21.8888 76.1818 22.0088C77.5506 22.1438 80.0293 21.99 80.3218 21.7538C80.4793 21.6188 80.9068 21.5963 81.8068 21.675C82.9993 21.7538 83.4868 21.87 86.3181 22.6313C87.9606 23.0813 89.1118 23.04 91.0656 22.515C91.9656 22.26 93.0981 22.0088 93.5668 21.9488C94.3693 21.87 94.5231 21.9113 95.7756 22.4775C97.7668 23.3775 98.8243 23.9438 99.4093 24.4688C99.9943 24.975 100.073 24.975 101.479 24.8588L101.483 24.8438ZM90.3493 21.4275L91.5418 20.8013L91.5043 19.59C91.4856 18.75 91.4443 17.9288 91.4068 17.1113L91.3093 15.8625L90.1168 16.7813C89.4118 17.3288 88.7293 17.7375 88.4368 17.7975C87.5781 17.955 83.3406 17.7975 82.9468 17.5838C82.4223 17.1963 81.9317 16.7647 81.4806 16.2938L80.3856 15.18L80.3668 15.8438C80.3668 16.1963 80.3293 16.8 80.2506 17.1713C80.1531 17.8763 80.1531 17.895 80.9143 18.8513C81.3231 19.38 81.6568 19.8488 81.6568 19.905C81.6568 20.2763 87.3006 22.035 88.5718 22.0538C88.9806 22.0538 89.4906 21.8775 90.3493 21.4275ZM88.0843 16.9913C89.4906 16.7175 90.1731 15.7013 90.7018 13.125C91.2493 10.35 91.5231 5.99625 91.2681 4.14C91.0318 2.46 89.1568 1.7175 85.5831 1.83375C83.3556 1.9125 82.4368 2.12625 81.6756 2.77125C81.2068 3.16125 81.2068 3.2025 80.9931 5.055C80.6031 8.61 81.1881 13.6688 82.2043 15.5625C82.6918 16.4813 83.1231 16.8113 84.0193 16.9688C85.0356 17.145 87.2031 17.145 88.0806 16.9875L88.0843 16.9913Z"
              fill="black"/>
    </g>
    <g id="github">
        <svg xmlns="http://www.w3.org/2000/svg" viewBox="0 0 64 64" width="131px" height="131px">
            <linearGradient id="KpzH_ttTMIjq8dhx1zD2pa" x1="30.999" x2="30.999" y1="16" y2="55.342"
                            gradientUnits="userSpaceOnUse" spreadMethod="reflect">
                <stop offset="0" stop-color="#6dc7ff"/>
                <stop offset="1" stop-color="#e6abff"/>
            </linearGradient>
            <path fill="url(#KpzH_ttTMIjq8dhx1zD2pa)"
                  d="M25.008,56.007c-0.003-0.368-0.006-1.962-0.009-3.454l-0.003-1.55 c-6.729,0.915-8.358-3.78-8.376-3.83c-0.934-2.368-2.211-3.045-2.266-3.073l-0.124-0.072c-0.463-0.316-1.691-1.157-1.342-2.263 c0.315-0.997,1.536-1.1,2.091-1.082c3.074,0.215,4.63,2.978,4.694,3.095c1.569,2.689,3.964,2.411,5.509,1.844 c0.144-0.688,0.367-1.32,0.659-1.878C20.885,42.865,15.27,40.229,15.27,30.64c0-2.633,0.82-4.96,2.441-6.929 c-0.362-1.206-0.774-3.666,0.446-6.765l0.174-0.442l0.452-0.144c0.416-0.137,2.688-0.624,7.359,2.433 c1.928-0.494,3.969-0.749,6.074-0.759c2.115,0.01,4.158,0.265,6.09,0.759c4.667-3.058,6.934-2.565,7.351-2.433l0.451,0.145 l0.174,0.44c1.225,3.098,0.813,5.559,0.451,6.766c1.618,1.963,2.438,4.291,2.438,6.929c0,9.591-5.621,12.219-10.588,13.087 c0.563,1.065,0.868,2.402,0.868,3.878c0,1.683-0.007,7.204-0.015,8.402l-2-0.014c0.008-1.196,0.015-6.708,0.015-8.389 c0-2.442-0.943-3.522-1.35-3.874l-1.73-1.497l2.274-0.253c5.205-0.578,10.525-2.379,10.525-11.341c0-2.33-0.777-4.361-2.31-6.036 l-0.43-0.469l0.242-0.587c0.166-0.401,0.894-2.442-0.043-5.291c-0.758,0.045-2.568,0.402-5.584,2.447l-0.384,0.259l-0.445-0.123 c-1.863-0.518-3.938-0.796-6.001-0.806c-2.052,0.01-4.124,0.288-5.984,0.806l-0.445,0.123l-0.383-0.259 c-3.019-2.044-4.833-2.404-5.594-2.449c-0.935,2.851-0.206,4.892-0.04,5.293l0.242,0.587l-0.429,0.469 c-1.536,1.681-2.314,3.712-2.314,6.036c0,8.958,5.31,10.77,10.504,11.361l2.252,0.256l-1.708,1.49 c-0.372,0.325-1.03,1.112-1.254,2.727l-0.075,0.549l-0.506,0.227c-1.321,0.592-5.839,2.162-8.548-2.485 c-0.015-0.025-0.544-0.945-1.502-1.557c0.646,0.639,1.433,1.673,2.068,3.287c0.066,0.19,1.357,3.622,7.28,2.339l1.206-0.262 l0.012,3.978c0.003,1.487,0.006,3.076,0.009,3.444L25.008,56.007z"/>
            <linearGradient id="KpzH_ttTMIjq8dhx1zD2pb" x1="32" x2="32" y1="5" y2="59.167" gradientUnits="userSpaceOnUse"
                            spreadMethod="reflect">
                <stop offset="0" stop-color="#1a6dff"/>
                <stop offset="1" stop-color="#c822ff"/>
            </linearGradient>
            <path fill="url(#KpzH_ttTMIjq8dhx1zD2pb)"
                  d="M32,58C17.663,58,6,46.337,6,32S17.663,6,32,6s26,11.663,26,26S46.337,58,32,58z M32,8 C18.767,8,8,18.767,8,32s10.767,24,24,24s24-10.767,24-24S45.233,8,32,8z"/>
        </svg>

    </g>
    <g id="redux">
        <svg xmlns="http://www.w3.org/2000/svg" viewBox="0 0 48 48" width="131px" height="131px">
            <path fill="#7e57c2"
                  d="M23,4c-6.617,0-12,7.27-12,16.205c0,4.834,1.582,9.169,4.078,12.136C15.03,32.554,15,32.773,15,33	c0,1.657,1.343,3,3,3s3-1.343,3-3s-1.343-3-3-3c-0.315,0-0.612,0.062-0.897,0.152C15.206,27.731,14,24.175,14,20.205	C14,12.924,18.037,7,23,7c3.837,0,7.111,3.547,8.404,8.518c1.122,0.346,2.237,0.782,3.33,1.308C33.579,9.508,28.759,4,23,4z"/>
            <path fill="#7e57c2"
                  d="M35.507,20.084c-3.947-2.392-8.374-3.442-12.182-2.959C22.775,16.444,21.943,16,21,16	c-1.657,0-3,1.343-3,3s1.343,3,3,3c1.272,0,2.353-0.795,2.789-1.912c3.118-0.379,6.812,0.531,10.163,2.563	c6.403,3.881,9.67,10.569,7.282,14.911c-0.827,1.504-2.286,2.572-4.218,3.09c-2.286,0.611-5.007,0.394-7.727-0.528	c-0.839,0.772-1.749,1.498-2.725,2.168c2.552,1.117,5.196,1.704,7.669,1.704c1.24,0,2.438-0.147,3.559-0.447	c2.741-0.733,4.841-2.304,6.071-4.542C47.016,33.276,43.267,24.787,35.507,20.084z"/>
            <path fill="#7e57c2"
                  d="M35,28.992C35,27.34,33.657,26,32,26s-3,1.34-3,2.992c0,0.669,0.228,1.281,0.6,1.779	c-1.279,2.802-3.744,5.567-7.062,7.578c-3.865,2.344-8.185,3.202-11.555,2.302c-1.932-0.518-3.391-1.586-4.218-3.09	c-1.702-3.094-0.521-7.376,2.61-10.988c-0.323-1.144-0.562-2.34-0.706-3.575c-5.07,4.797-7.109,11.323-4.532,16.009	c1.23,2.238,3.33,3.809,6.071,4.542c1.121,0.3,2.318,0.447,3.559,0.447c3.346,0,7.007-1.068,10.326-3.08	c3.836-2.325,6.683-5.577,8.209-8.962C33.815,31.801,35,30.541,35,28.992z"/>
        </svg>
    </g>


    <g id="js">
        <path d="M8.11639 7.5H113.116V112.5H8.11639V7.5Z" fill="#F5DE19"/>
        <path d="M78.6501 89.5312C79.5448 91.3485 80.9347 92.8759 82.6598 93.9375C84.3848 94.9991 86.3747 95.5515 88.4001 95.5313C92.4876 95.5313 95.1014 93.4875 95.1014 90.6562C95.1014 87.2812 92.4164 86.0738 87.9164 84.105L85.4489 83.0475C78.3239 80.0138 73.5989 76.215 73.5989 68.1825C73.5989 60.7838 79.2239 55.1475 88.0476 55.1475C90.904 54.9412 93.7579 55.5805 96.2534 56.9856C98.7488 58.3907 100.775 60.4994 102.08 63.0488L94.3664 67.98C93.864 66.716 92.9892 65.6345 91.858 64.879C90.7268 64.1236 89.3927 63.7298 88.0326 63.75C87.4392 63.6906 86.84 63.7555 86.273 63.9404C85.7061 64.1254 85.1839 64.4265 84.7397 64.8244C84.2956 65.2224 83.9392 65.7085 83.6932 66.2518C83.4473 66.7951 83.3173 67.3837 83.3114 67.98C83.3114 70.9388 85.1451 72.1388 89.3789 73.98L91.8464 75.0375C100.231 78.6338 104.971 82.2975 104.971 90.5363C104.971 99.42 97.9926 104.287 88.6214 104.287C84.97 104.52 81.3293 103.691 78.1387 101.901C74.948 100.11 72.3438 97.4342 70.6401 94.1963L78.6501 89.5312ZM43.7939 90.3863C45.3426 93.135 46.7526 95.46 50.1426 95.46C53.3826 95.46 55.4301 94.1925 55.4301 89.2612V55.71H65.2964V89.3925C65.2964 99.6075 59.2964 104.257 50.5626 104.257C47.4755 104.426 44.4095 103.657 41.7677 102.051C39.126 100.444 37.0321 98.0761 35.7614 95.2575L43.7939 90.3863Z"
              fill="black"/>
    </g>

    <g id="instagram">
        <path d="M30 24.5C30 25.6867 29.6481 26.8467 28.9888 27.8334C28.3295 28.8201 27.3925 29.5892 26.2961 30.0433C25.1997 30.4974 23.9933 30.6162 22.8295 30.3847C21.6656 30.1532 20.5965 29.5818 19.7574 28.7426C18.9182 27.9035 18.3468 26.8344 18.1153 25.6705C17.8838 24.5067 18.0026 23.3003 18.4567 22.2039C18.9108 21.1075 19.6799 20.1705 20.6666 19.5112C21.6533 18.8519 22.8133 18.5 24 18.5C25.5907 18.5018 27.1158 19.1346 28.2406 20.2594C29.3654 21.3842 29.9982 22.9093 30 24.5ZM42.75 16.25V32.75C42.7468 35.5338 41.6396 38.2027 39.6711 40.1711C37.7027 42.1396 35.0338 43.2468 32.25 43.25H15.75C12.9662 43.2468 10.2973 42.1396 8.32889 40.1711C6.36044 38.2027 5.25318 35.5338 5.25 32.75V16.25C5.25318 13.4662 6.36044 10.7973 8.32889 8.82889C10.2973 6.86044 12.9662 5.75318 15.75 5.75H32.25C35.0338 5.75318 37.7027 6.86044 39.6711 8.82889C41.6396 10.7973 42.7468 13.4662 42.75 16.25ZM33 24.5C33 22.72 32.4722 20.9799 31.4832 19.4999C30.4943 18.0198 29.0887 16.8663 27.4442 16.1851C25.7996 15.5039 23.99 15.3257 22.2442 15.6729C20.4984 16.0202 18.8947 16.8774 17.636 18.136C16.3774 19.3947 15.5202 20.9984 15.1729 22.7442C14.8257 24.49 15.0039 26.2996 15.6851 27.9442C16.3663 29.5887 17.5198 30.9943 18.9999 31.9832C20.4799 32.9722 22.22 33.5 24 33.5C26.3861 33.4973 28.6738 32.5482 30.361 30.861C32.0482 29.1738 32.9973 26.8861 33 24.5ZM36 14.75C36 14.305 35.868 13.87 35.6208 13.5C35.3736 13.13 35.0222 12.8416 34.611 12.6713C34.1999 12.501 33.7475 12.4564 33.311 12.5432C32.8746 12.63 32.4737 12.8443 32.159 13.159C31.8443 13.4737 31.63 13.8746 31.5432 14.311C31.4564 14.7475 31.501 15.1999 31.6713 15.611C31.8416 16.0222 32.13 16.3736 32.5 16.6208C32.87 16.868 33.305 17 33.75 17C34.3467 17 34.919 16.7629 35.341 16.341C35.7629 15.919 36 15.3467 36 14.75Z"
              fill="currentColor"/>
    </g>

    <g id="linkedin">
        <path d="M5 8.22175C5 6.71837 6.24925 5.5 7.79062 5.5H40.2094C41.7507 5.5 43 6.71837 43 8.22175V40.7783C43 42.2816 41.7507 43.5 40.2094 43.5H7.79062C6.24925 43.5 5 42.2816 5 40.7783V8.22175ZM16.7396 37.3108V20.1514H11.0373V37.3108H16.7396ZM13.8896 17.8073C15.8775 17.8073 17.1149 16.4915 17.1149 14.8433C17.0792 13.1594 15.8799 11.8793 13.9276 11.8793C11.9754 11.8793 10.7 13.1617 10.7 14.8433C10.7 16.4915 11.9374 17.8073 13.8516 17.8073H13.8896ZM25.5461 37.3108V27.7276C25.5461 27.2146 25.5841 26.7016 25.7361 26.3359C26.147 25.3123 27.0851 24.2506 28.6621 24.2506C30.726 24.2506 31.5501 25.8229 31.5501 28.1314V37.3108H37.2525V27.4688C37.2525 22.1962 34.4405 19.7453 30.688 19.7453C27.6623 19.7453 26.3061 21.4078 25.5461 22.5786V22.638H25.5081C25.5207 22.6182 25.5334 22.5984 25.5461 22.5786V20.1514H19.8461C19.9174 21.7616 19.8461 37.3108 19.8461 37.3108H25.5461Z"
              fill="currentColor"/>
    </g>

    <g id="mail">
        <path fill-rule="evenodd" clip-rule="evenodd"
              d="M3.13125 12.6467C3.3959 11.4686 4.04647 10.4168 4.97642 9.66349C5.90637 8.91014 7.06057 8.49992 8.25 8.5H39.75C40.9394 8.49992 42.0936 8.91014 43.0236 9.66349C43.9535 10.4168 44.6041 11.4686 44.8687 12.6467L24 25.604L3.13125 12.6467ZM3 15.692V34.636L18.2329 25.148L3 15.692ZM20.7476 26.7133L3.50138 37.452C3.92748 38.3648 4.60001 39.1358 5.44068 39.6754C6.28135 40.215 7.25558 40.501 8.25 40.5H39.75C40.7443 40.5002 41.7181 40.2136 42.5583 39.6736C43.3985 39.1335 44.0705 38.3622 44.496 37.4493L27.2498 26.7107L24 28.7293L20.7476 26.7107V26.7133ZM29.7671 25.1507L45 34.636V15.692L29.7671 25.148V25.1507Z"
              fill="currentColor"/>
    </g>
    <g id="backtick">
        <g filter="url(#filter0_d_20_1942)">
            <path d="M13.5417 20.8333C13.0771 20.8333 12.6312 20.9042 12.1875 20.9688C12.3312 20.4854 12.4792 19.9938 12.7167 19.5521C12.9542 18.9104 13.325 18.3542 13.6937 17.7938C14.0021 17.1875 14.5458 16.7771 14.9458 16.2583C15.3646 15.7542 15.9354 15.4188 16.3875 15C16.8312 14.5625 17.4125 14.3438 17.875 14.0354C18.3583 13.7583 18.7792 13.4521 19.2292 13.3063L20.3521 12.8438L21.3396 12.4333L20.3292 8.39584L19.0854 8.69584C18.6875 8.79584 18.2021 8.9125 17.65 9.05209C17.0854 9.15625 16.4833 9.44167 15.8125 9.70209C15.15 9.99792 14.3833 10.1979 13.6708 10.6729C12.9542 11.1271 12.1271 11.5063 11.3979 12.1146C10.6917 12.7417 9.83958 13.2854 9.21041 14.0833C8.52291 14.8292 7.84375 15.6125 7.31666 16.5042C6.70625 17.3542 6.29166 18.2875 5.85416 19.2104C5.45833 20.1333 5.13958 21.0771 4.87916 21.9938C4.38541 23.8313 4.16458 25.5771 4.07916 27.0708C4.00833 28.5667 4.05 29.8104 4.1375 30.7104C4.16875 31.1354 4.22708 31.5479 4.26875 31.8333L4.32083 32.1833L4.375 32.1708C4.74554 33.9017 5.59855 35.4924 6.83534 36.7587C8.07213 38.0251 9.64217 38.9154 11.3638 39.3267C13.0855 39.738 14.8884 39.6535 16.5641 39.083C18.2397 38.5124 19.7196 37.4792 20.8325 36.1027C21.9454 34.7262 22.6459 33.0628 22.853 31.3048C23.06 29.5468 22.7651 27.7662 22.0024 26.1688C21.2396 24.5714 20.0403 23.2226 18.543 22.2784C17.0458 21.3342 15.3118 20.8332 13.5417 20.8333ZM36.4583 20.8333C35.9937 20.8333 35.5479 20.9042 35.1042 20.9688C35.2479 20.4854 35.3958 19.9938 35.6333 19.5521C35.8708 18.9104 36.2417 18.3542 36.6104 17.7938C36.9187 17.1875 37.4625 16.7771 37.8625 16.2583C38.2812 15.7542 38.8521 15.4188 39.3042 15C39.7479 14.5625 40.3292 14.3438 40.7917 14.0354C41.275 13.7583 41.6958 13.4521 42.1458 13.3063L43.2687 12.8438L44.2562 12.4333L43.2458 8.39584L42.0021 8.69584C41.6042 8.79584 41.1187 8.9125 40.5667 9.05209C40.0021 9.15625 39.4 9.44167 38.7292 9.70209C38.0688 10 37.3 10.1979 36.5875 10.675C35.8708 11.1292 35.0438 11.5083 34.3146 12.1167C33.6083 12.7438 32.7562 13.2875 32.1271 14.0833C31.4396 14.8292 30.7604 15.6125 30.2333 16.5042C29.6229 17.3542 29.2083 18.2875 28.7708 19.2104C28.375 20.1333 28.0562 21.0771 27.7958 21.9938C27.3021 23.8313 27.0812 25.5771 26.9958 27.0708C26.925 28.5667 26.9667 29.8104 27.0542 30.7104C27.0854 31.1354 27.1437 31.5479 27.1854 31.8333L27.2375 32.1833L27.2917 32.1708C27.6622 33.9017 28.5152 35.4924 29.752 36.7587C30.9888 38.0251 32.5588 38.9154 34.2805 39.3267C36.0022 39.738 37.8051 39.6535 39.4807 39.083C41.1564 38.5124 42.6363 37.4792 43.7492 36.1027C44.8621 34.7262 45.5626 33.0628 45.7696 31.3048C45.9766 29.5468 45.6817 27.7662 44.919 26.1688C44.1563 24.5714 42.957 23.2226 41.4597 22.2784C39.9624 21.3342 38.2284 20.8332 36.4583 20.8333Z"
                  fill="#FDC435"/>
        </g>
        <defs>
            <filter id="filter0_d_20_1942" x="-2" y="-1" width="54" height="54" filterUnits="userSpaceOnUse"
                    color-interpolation-filters="sRGB">
                <feFlood flood-opacity="0" result="BackgroundImageFix"/>
                <feColorMatrix in="SourceAlpha" type="matrix" values="0 0 0 0 0 0 0 0 0 0 0 0 0 0 0 0 0 0 127 0"
                               result="hardAlpha"/>
                <feOffset dy="1"/>
                <feGaussianBlur stdDeviation="1"/>
                <feColorMatrix type="matrix" values="0 0 0 0 0.145098 0 0 0 0 0.156863 0 0 0 0 0.168627 0 0 0 0.5 0"/>
                <feBlend mode="normal" in2="BackgroundImageFix" result="effect1_dropShadow_20_1942"/>
                <feBlend mode="normal" in="SourceGraphic" in2="effect1_dropShadow_20_1942" result="shape"/>
            </filter>
        </defs>
    </g>
    <g id="docker">
        <path d="M117.523 49.7463C114.821 47.8713 108.628 47.1681 103.787 48.1056C103.224 43.4181 100.634 39.3171 96.1307 35.6842L93.5413 33.8092L91.7394 36.5046C89.488 40.0202 88.3621 44.9421 88.6996 49.6296C88.8121 51.2697 89.375 54.1994 91.0639 56.7775C89.488 57.715 86.2227 58.8869 81.9444 58.8869H0.541279L0.316279 59.8244C-0.472159 64.5114 -0.472159 79.1594 8.76034 90.4089C15.741 98.9632 26.0994 103.299 39.7227 103.299C69.2211 103.299 91.0639 89.1194 101.31 63.4567C105.363 63.5739 114.033 63.4567 118.424 54.6677C118.536 54.4333 118.761 53.9646 119.549 52.2072L120 51.2697L117.523 49.7463ZM65.6183 16.7008H53.2339V28.4191H65.6183V16.7008ZM65.6183 30.7628H53.2339V42.4811H65.6183V30.7624V30.7628ZM50.9816 30.7628H38.5972V42.4811H50.9816V30.7624V30.7628ZM36.3449 30.7628H23.96V42.4811H36.3449V30.7624V30.7628ZM21.7082 44.8249H9.32331V56.5432H21.7077V44.8244L21.7082 44.8249ZM36.3449 44.8249H23.96V56.5432H36.3449V44.8244V44.8249ZM50.9816 44.8249H38.5972V56.5432H50.9816V44.8244V44.8249ZM65.6188 44.8249H53.2335V56.5432H65.6188V44.8244V44.8249ZM80.2555 44.8249H67.8702V56.5432H80.2555V44.8244V44.8249Z"
              fill="#2396ED"/>
    </g>
    <g id="styledComponent">
        <g clip-path="url(#clip0_1_2427)">
            <path d="M68.7673 118.279C68.9473 117.872 69.4015 117.589 69.7315 117.246C74.7666 111.967 79.8446 106.735 84.8111 101.391C86.3653 99.9558 87.5662 98.1804 88.32 96.2036C89.0739 94.2269 89.3601 92.1026 89.1563 89.9968C89.0004 89.0951 88.7958 88.2025 88.5435 87.3229C87.1894 88.6084 85.9296 89.7783 84.6611 90.9567C82.6899 92.7908 80.7273 94.6334 78.739 96.4461C77.5665 97.6415 76.059 98.4531 74.4156 98.7737C72.7721 99.0943 71.0701 98.9087 69.5344 98.2416C67.9797 97.6705 66.627 96.6553 65.6443 95.3221C64.6616 93.9889 64.092 92.3965 64.0064 90.7425C63.9604 90.5297 63.8988 90.3206 63.8222 90.1168C62.3095 91.4024 60.8611 92.5851 59.4256 93.8021L29.5877 119.085C29.382 119.261 29.1591 119.479 28.9663 119.65H68.7459L68.6859 119.612C68.4716 119.462 68.583 118.673 68.7673 118.279Z"
                  fill="#FFCEBF"/>
            <path d="M27.1434 118.279C27.4972 117.818 27.9243 117.418 28.4075 117.096L69.6997 82.0642C72.5165 79.6731 75.3205 77.2691 78.1116 74.8522C78.4565 74.6118 78.7267 74.2791 78.8915 73.8924C79.5591 70.9831 79.6537 67.9717 79.17 65.0263C78.7415 65.3262 78.5101 65.4548 78.313 65.6648C74.932 68.6901 71.5681 71.7412 68.1699 74.7494C67.0442 75.8824 65.5882 76.6292 64.0113 76.8825C62.4344 77.1359 60.8177 76.8826 59.3938 76.1592C57.9411 75.4734 56.7253 74.3709 55.9012 72.992C55.077 71.6131 54.6818 70.0201 54.7658 68.4159V67.0275C54.1444 67.4817 53.6902 67.7859 53.266 68.1287C36.7394 81.3615 20.2156 94.5842 3.69472 107.797C2.94909 108.393 2.05777 109.721 1.08074 108.431C0.103713 107.141 1.59068 106.61 2.34059 106.01C19.9528 91.8774 37.5736 77.7576 55.2029 63.6507C58.074 61.3496 58.2625 60.3854 56.3942 56.7301L55.28 57.7757C52.2247 60.6168 49.135 63.4193 46.1268 66.3075C44.8929 67.4978 43.3474 68.3148 41.6689 68.6641C39.9904 69.0135 38.2473 68.8809 36.6409 68.2818C35.0345 67.6827 33.6304 66.6415 32.5905 65.2784C31.5507 63.9153 30.9176 62.2858 30.7644 60.5782C30.1944 61.0067 29.7016 61.3196 29.2345 61.6838L3.09479 81.9443C2.64395 82.3864 2.1298 82.7591 1.56925 83.0498C1.14619 83.1777 0.69189 83.155 0.283691 82.9856V119.671H27.0919C26.9923 119.451 26.945 119.21 26.954 118.969C26.9629 118.727 27.0277 118.491 27.1434 118.279Z"
                  fill="#FFCEBF"/>
            <path d="M99.5652 1.82096C98.8367 4.20782 98.1297 6.59897 97.4912 9.01154C96.9014 10.7164 96.97 12.5802 97.6836 14.2371C98.3971 15.8941 99.704 17.2246 101.348 17.9676C106.376 20.6107 112.042 21.798 117.709 21.3958V2.22806C117.646 1.80781 117.669 1.37914 117.777 0.968207C117.897 0.73576 118.049 0.520916 118.227 0.329712H99.5481C99.8352 0.663958 99.7366 1.25103 99.5652 1.82096Z"
                  fill="#FF6196"/>
            <path d="M62.0512 42.9976C61.9624 45.137 61.214 47.1966 59.9086 48.894C55.2421 54.9179 49.883 60.3719 43.9419 65.1435C42.9839 66.0304 41.7695 66.591 40.4731 66.745C39.1767 66.8989 37.8648 66.6383 36.7256 66.0005C35.5918 65.5161 34.6358 64.6925 33.989 63.6428C33.3421 62.5932 33.0362 61.369 33.1132 60.1384C33.2505 58.627 33.878 57.202 34.9002 56.0803C41.5437 49.7455 48.7416 44.019 56.4076 38.9695C56.9097 38.5758 57.5228 38.3499 58.1603 38.3237C58.7978 38.2976 59.4274 38.4725 59.96 38.8238C60.6601 39.2585 61.2261 39.8786 61.5952 40.6153C61.9643 41.352 62.1222 42.1766 62.0512 42.9976Z"
                  fill="#FF87AF"/>
            <path d="M56.9126 68.97C56.8131 68.0228 56.9347 67.0654 57.2678 66.1731C57.6009 65.2809 58.1365 64.478 58.8324 63.8277C65.3372 57.8281 72.3163 52.3638 79.7013 47.4883C79.9241 47.3468 80.1298 47.2054 80.3741 47.0597C81.0192 46.594 81.8008 46.356 82.5959 46.3832C83.3911 46.4103 84.1546 46.7011 84.7664 47.2097C85.3584 47.7112 85.7772 48.3865 85.9634 49.1396C86.1496 49.8928 86.0936 50.6854 85.8034 51.4049C84.8691 54.5168 83.1448 57.3337 80.7983 59.5811C76.0329 64.2758 71.1753 68.8762 66.2286 73.3795C65.4836 74.1456 64.5051 74.6422 63.4469 74.7911C62.3888 74.9401 61.3111 74.7329 60.3836 74.2022C59.409 73.6958 58.5791 72.9499 57.9719 72.0347C57.3648 71.1194 57.0002 70.0648 56.9126 68.97Z"
                  fill="#FF87AF"/>
            <path d="M87.8344 71.8015C86.6346 73.0871 85.4004 74.3126 84.2477 75.6282C83.9011 76.1367 83.6136 76.683 83.3907 77.2566C84.0249 77.4451 84.7662 77.9422 85.2804 77.7665C87.8987 76.888 90.4527 75.8339 93.3281 74.724C92.7024 76.1638 92.231 77.4922 91.5668 78.7092C88.8305 83.3078 85.4038 87.4587 81.4066 91.0164C79.8868 92.4819 78.3084 93.8832 76.6715 95.2201C75.8046 95.9395 74.7622 96.4157 73.6509 96.6001C72.5396 96.7844 71.3992 96.6702 70.3465 96.2692C69.2938 95.8681 68.3665 95.1947 67.6595 94.3176C66.9525 93.4406 66.4912 92.3916 66.3227 91.2778C66.254 90.6585 66.3087 90.0317 66.4838 89.4337C66.6589 88.8357 66.9507 88.2784 67.3426 87.7939C73.174 81.4614 79.8384 75.9503 87.1531 71.4115C87.242 71.3771 87.3363 71.3582 87.4316 71.3558L87.8344 71.8015Z"
                  fill="#FF87AF"/>
            <path d="M97.6724 54.7335L105.004 22.1659L110.147 23.37L107.494 31.4305C105.017 38.9296 102.51 46.4287 100.093 53.9364C99.6221 55.3248 99.0051 55.5819 97.6724 54.7335Z"
                  fill="#FF6196"/>
            <path d="M89.3857 73.8885C90.1614 70.9274 90.9327 68.1892 91.5841 65.421C92.2189 62.7364 93.4263 60.2207 95.1236 58.0461C96.1649 56.6791 97.3348 57.2234 98.5304 57.519C99.636 57.789 99.9145 58.5989 99.9616 59.6616C100.136 62.6005 99.241 65.5031 97.4419 67.8335C95.3002 70.4887 92.5317 72.5695 89.3857 73.8885Z"
                  fill="#FF6196"/>
            <path d="M119.944 3.83936C120.008 2.88498 119.983 1.92674 119.871 0.976845C119.783 0.711516 119.607 0.483621 119.374 0.329779C119.184 0.175101 118.961 0.0652523 118.723 0.00838844C118.585 -0.0173228 118.393 0.124089 118.208 0.325493C118.03 0.516698 117.878 0.731542 117.758 0.96399C117.65 1.37492 117.627 1.80359 117.69 2.22384V21.3873C112.023 21.7895 106.357 20.6022 101.329 17.9591C99.685 17.2161 98.3781 15.8856 97.6646 14.2286C96.951 12.5717 96.8824 10.7079 97.4722 9.00304C98.1107 6.59046 98.8178 4.19932 99.5462 1.81246C99.7177 1.24253 99.8162 0.655454 99.5462 0.321208C99.3961 0.158494 99.1888 0.0602123 98.9677 0.0469556C98.6847 0.0500088 98.4105 0.146413 98.1878 0.321208C97.8674 0.512888 97.6121 0.796593 97.4551 1.1354C96.598 3.70652 95.8438 6.30336 95.1882 8.9259C94.9407 9.95936 94.874 11.0279 94.9911 12.0841C95.1569 13.9952 95.8676 15.8186 97.0389 17.3377C98.2102 18.8569 99.7928 20.0081 101.599 20.6545C102.409 20.993 102.884 21.3273 102.657 22.3943C102.344 23.7484 102.04 25.1026 101.732 26.461C99.632 35.6656 97.5436 44.8745 95.4667 54.0877C95.4082 54.4985 95.2275 54.8822 94.9482 55.189C93.5793 56.2771 92.4291 57.6148 91.5586 59.1314C90.4493 61.1327 89.6817 63.3052 89.2875 65.5592C89.2118 66.2782 88.952 66.9655 88.5331 67.5548C88.1143 68.144 87.5505 68.6153 86.8963 68.9231C85.1094 69.8273 83.4682 70.9971 81.4841 72.2141C81.6164 69.8282 81.5906 67.4361 81.407 65.0535C81.256 64.3206 81.288 63.5618 81.5003 62.8442C81.7126 62.1267 82.0985 61.4725 82.624 60.9397C85.2375 58.3506 87.1005 55.1015 88.0148 51.538C88.2878 50.712 88.3627 49.8333 88.2333 48.9729C88.104 48.1126 87.774 47.2948 87.27 46.5856C86.7661 45.8764 86.1023 45.2957 85.3325 44.8905C84.5626 44.4853 83.7081 44.267 82.8382 44.2531C81.4298 44.2374 80.047 44.6304 78.8573 45.3844C74.7683 48.1767 70.7504 51.0715 66.8073 54.0663C64.4633 55.8318 62.2564 57.7858 59.9852 59.637C59.8873 59.5319 59.8025 59.4154 59.7324 59.2899C59.689 58.9744 59.604 58.6661 59.4796 58.3729C57.5812 55.4418 58.8968 53.3121 60.958 51.1223C63.1053 48.8714 64.2919 45.8727 64.2661 42.7619C64.3327 41.1769 63.8363 39.6194 62.8649 38.3653C62.3474 37.7286 61.7096 37.2001 60.988 36.8097C59.9629 36.2487 58.7908 36.0145 57.6289 36.1386C56.467 36.2627 55.3708 36.7391 54.4873 37.5039L53.2917 38.361C50.5621 40.315 47.7981 42.2177 45.1713 44.3089C41.3364 47.3705 37.5841 50.5341 33.9183 53.7963C32.2042 55.309 30.953 57.3744 29.1746 58.78C19.9014 66.1034 10.5297 73.294 1.1922 80.5317C0.871132 80.7232 0.575909 80.9551 0.313735 81.2216C0.286745 81.2606 0.263774 81.3023 0.245172 81.3459C0.0480521 81.8044 -0.119071 82.5629 0.112331 82.8414C0.169054 82.9019 0.23761 82.95 0.313735 82.9828C0.721934 83.1523 1.17623 83.175 1.5993 83.0471C2.15985 82.7563 2.67399 82.3837 3.12483 81.9415L29.2646 61.6811C29.7317 61.3168 30.2245 60.9869 30.7944 60.5755C30.9476 62.2831 31.5807 63.9125 32.6206 65.2757C33.6604 66.6388 35.0646 67.68 36.671 68.2791C38.2774 68.8782 40.0204 69.0107 41.6989 68.6614C43.3774 68.312 44.9229 67.4951 46.1569 66.3048C49.1565 63.4166 52.2547 60.6141 55.3101 57.773L56.4242 56.7274C58.2926 60.3827 58.104 61.3468 55.2329 63.648C37.5893 77.7663 19.9585 91.8875 2.34064 106.012C1.59073 106.611 0.108046 107.156 1.08079 108.433C2.05353 109.71 2.94914 108.394 3.69476 107.798C20.2242 94.5972 36.7423 81.3787 53.2489 68.1432C53.6774 67.8003 54.1273 67.4961 54.7487 67.0419V68.4303C54.6647 70.0345 55.0599 71.6275 55.8841 73.0064C56.7082 74.3853 57.924 75.4879 59.3767 76.1736C60.8007 76.897 62.4173 77.1503 63.9942 76.897C65.5711 76.6436 67.0271 75.8968 68.1528 74.7638C71.551 71.7642 74.9149 68.7045 78.2959 65.6792C78.5102 65.4863 78.7587 65.3406 79.153 65.0407C79.6367 67.9861 79.542 70.9975 78.8744 73.9068C78.7096 74.2936 78.4394 74.6262 78.0945 74.8667C75.3005 77.2807 72.4966 79.6847 69.6826 82.0787L28.4075 117.115C27.9243 117.437 27.4972 117.836 27.1434 118.297C27.0305 118.507 26.9672 118.741 26.9582 118.979C26.9493 119.217 26.9951 119.455 27.092 119.673C27.2856 119.818 27.5094 119.917 27.7468 119.964C27.9842 120.011 28.2291 120.004 28.4633 119.943C28.648 119.889 28.8181 119.794 28.9603 119.664C29.1746 119.493 29.3889 119.274 29.5817 119.099L59.4196 93.8158C60.8551 92.5988 62.3035 91.399 63.8162 90.1306C63.8928 90.3343 63.9544 90.5434 64.0005 90.7562C64.0861 92.4102 64.6556 94.0027 65.6383 95.3358C66.6211 96.669 67.9737 97.6842 69.5284 98.2553C71.0641 98.9225 72.7662 99.108 74.4096 98.7874C76.053 98.4669 77.5606 97.6552 78.733 96.4598C80.7213 94.6472 82.684 92.8045 84.6552 90.9705C85.9407 89.792 87.1834 88.6093 88.5376 87.3366C88.7898 88.2162 88.9944 89.1089 89.1503 90.0106C89.3473 92.1094 89.0578 94.2253 88.3042 96.1941C87.5506 98.1628 86.3532 99.9313 84.8051 101.362C79.8386 106.71 74.7606 111.942 69.7255 117.217C69.3955 117.56 68.9413 117.843 68.7613 118.25C68.5813 118.657 68.4657 119.454 68.6799 119.626L68.7399 119.664C69.1892 119.883 69.6945 119.959 70.1883 119.883C70.3267 119.854 70.45 119.777 70.5354 119.664C70.6554 119.54 70.7711 119.386 70.8868 119.27C74.9663 115.053 79.0672 110.858 83.1168 106.611C84.7513 104.955 86.288 103.205 87.7191 101.371C89.5851 99.3049 90.8224 96.7492 91.2855 94.0042C91.7486 91.2591 91.4181 88.439 90.3331 85.8754C90.2164 85.3037 90.3304 84.7092 90.6502 84.2213C90.9287 83.7413 91.2372 83.2742 91.5543 82.8114C92.569 81.494 93.4141 80.0544 94.0698 78.5262C95.3368 74.7758 97.2817 71.2898 99.8076 68.2417C100.969 66.7695 101.768 65.0448 102.14 63.207C102.512 61.3692 102.447 59.4696 101.95 57.6616C101.775 56.9741 101.775 56.2535 101.95 55.5661C104.119 48.8512 106.351 42.1577 108.562 35.4599L111.519 26.4867L112.432 23.7142C114.377 23.7142 116.211 23.6756 118.037 23.7142C119.554 23.757 120.017 23.0457 120 21.5715C119.91 15.658 119.944 9.74866 119.944 3.83936ZM43.9371 65.1435C42.9791 66.0304 41.7647 66.591 40.4683 66.745C39.1719 66.8989 37.86 66.6383 36.7208 66.0006C35.587 65.5162 34.631 64.6925 33.9842 63.6429C33.3373 62.5932 33.0314 61.369 33.1084 60.1384C33.2457 58.6271 33.8732 57.202 34.8953 56.0803C41.5388 49.7455 48.7368 44.019 56.4028 38.9695C56.8212 38.6737 57.2972 38.4693 57.7998 38.3696C58.1369 38.3074 58.4825 38.3074 58.8196 38.3696C59.2234 38.4482 59.6086 38.6023 59.9552 38.8238C60.656 39.2588 61.2224 39.8796 61.5916 40.6171C61.9607 41.3547 62.1182 42.1802 62.0464 43.0019C61.9576 45.1413 61.2092 47.2009 59.9038 48.8983C55.237 54.9207 49.878 60.3733 43.9371 65.1435ZM66.2202 73.4097C65.4752 74.1758 64.4966 74.6724 63.4385 74.8213C62.3803 74.9703 61.3027 74.7631 60.3752 74.2324C59.3988 73.7249 58.5678 72.977 57.9605 72.0593C57.3533 71.1416 56.9897 70.0844 56.9042 68.9874C56.8047 68.0401 56.9263 67.0828 57.2594 66.1905C57.5925 65.2982 58.1281 64.4954 58.8239 63.8451C65.3288 57.8454 72.3078 52.3811 79.6929 47.5056C79.9157 47.3642 80.1214 47.2228 80.3657 47.0771C81.0107 46.6114 81.7923 46.3734 82.5875 46.4005C83.3826 46.4277 84.1462 46.7185 84.758 47.2271C85.35 47.7285 85.7688 48.4038 85.955 49.157C86.1412 49.9101 86.0852 50.7028 85.795 51.4223C84.8607 54.5342 83.1364 57.351 80.7899 59.5985C76.0633 64.3208 71.1482 68.8674 66.2288 73.3925L66.2202 73.4097ZM91.5501 78.7276C88.8175 83.319 85.3967 87.4638 81.407 91.0176C79.8872 92.4831 78.3088 93.8844 76.6718 95.2214C75.8049 95.9408 74.7625 96.417 73.6512 96.6013C72.5399 96.7856 71.3996 96.6714 70.3469 96.2704C69.2942 95.8694 68.3669 95.1959 67.6599 94.3189C66.9529 93.4419 66.4915 92.3928 66.323 91.279C66.2543 90.6597 66.3091 90.0329 66.4842 89.435C66.6592 88.837 66.9511 88.2796 67.3429 87.7951C73.1743 81.4627 79.8387 75.9515 87.1534 71.4128C87.2424 71.3783 87.3366 71.3594 87.432 71.3571L87.8605 71.7856C86.6606 73.0712 85.4265 74.2967 84.2738 75.6123C83.9272 76.1208 83.6396 76.6671 83.4167 77.2407C84.0509 77.4292 84.7923 77.9263 85.3065 77.7506C87.3763 77.0564 89.4117 76.2508 91.5929 75.3937L93.3541 74.7081C92.6942 76.1651 92.2228 77.4935 91.5586 78.7105L91.5501 78.7276ZM97.4336 67.8646C95.8352 69.8996 93.8317 71.5806 91.5501 72.8012C90.8444 73.1954 90.1202 73.564 89.3775 73.9068C90.1402 70.9885 90.903 68.2846 91.5501 65.5506L91.5758 65.4392C92.2106 62.7546 93.418 60.2389 95.1153 58.0644C96.1566 56.6974 97.3265 57.2416 98.5221 57.5373C99.6277 57.8073 99.9062 58.6172 99.9533 59.6799C100.129 62.6162 99.2372 65.5171 97.4422 67.8475L97.4336 67.8646ZM107.461 31.4404C104.984 38.9395 102.477 46.4386 100.06 53.9463C99.6062 55.3561 98.9892 55.6132 97.6565 54.7648L104.011 26.5124L104.988 22.1758L110.131 23.3799L109.098 26.5124L107.461 31.4404Z"
                  fill="#1F2626"/>
        </g>
        <defs>
            <clipPath id="clip0_1_2427">
                <rect width="120" height="120" fill="white"/>
            </clipPath>
        </defs>
    </g>
    <g id="nextJs">
        <svg fill="#228BE6" xmlns="http://www.w3.org/2000/svg" viewBox="0 0 48 48" width="120px" height="120px">
            <path d="M20,23.474V31.5c0,0.828-0.672,1.5-1.5,1.5S17,32.328,17,31.5v-13c0-0.659,0.431-1.241,1.062-1.435 c0.627-0.19,1.314,0.049,1.682,0.596l0.249,0.37L20,18l15.234,22.546C40.524,36.947,44,30.88,44,24c0-11.046-8.954-20-20-20 S4,12.954,4,24s8.954,20,20,20c3.082,0,5.99-0.718,8.597-1.963L20,23.474z M28,16.5c0-0.828,0.672-1.5,1.5-1.5s1.5,0.672,1.5,1.5 v12.79l-3-4.304V16.5z"/>
        </svg>
    </g>
    <g id="materialUi">
        <svg xmlns="http://www.w3.org/2000/svg" viewBox="0 0 48 48" width="131px" height="131px">
            <polygon fill="#29b6f6" points="1,5 7,9 7,29 1,25"/>
            <polygon fill="#0288d1" points="47,20 41,24 41,37 47,33"/>
            <polygon fill="#0288d1" points="47,6 41,10 41,17 47,13"/>
            <polygon fill="#0288d1" points="35,5 29,9 29,29 35,25"/>
            <polygon fill="#29b6f6" points="1,12 18,23 18,16 1,5"/>
            <polygon fill="#0288d1" points="35,12 18,23 18,16 35,5"/>
            <polygon fill="#0288d1" points="35,26 18,37 18,30 35,19"/>
            <polygon fill="#0288d1" points="47,34 30,45 30,38 47,27"/>
            <polygon fill="#29b6f6" points="30,37.765 18,30 18,37 30,44.765"/>
        </svg>
    </g>
    <g id="swagger">
        <svg xmlns="http://www.w3.org/2000/svg" viewBox="0 0 48 48" width="131px" height="131px">
            <circle cx="24" cy="24" r="20" fill="#ffca28"/>
            <polygon fill="#fff" points="30.4,32.7 28.6,30.3 32,27.75 32,20.25 28.6,17.7 30.4,15.3 35,18.75 35,29.25"/>
            <polygon fill="#fff" points="17.6,32.7 13,29.25 13,18.75 17.6,15.3 19.4,17.7 16,20.25 16,27.75 19.4,30.3"/>
            <circle cx="19.5" cy="23.5" r="1.5" fill="#fff"/>
            <circle cx="24" cy="23.5" r="1.5" fill="#fff"/>
            <circle cx="28.5" cy="23.5" r="1.5" fill="#fff"/>
        </svg>
    </g>
    <g id="storyBook">
        <svg xmlns="http://www.w3.org/2000/svg" viewBox="0 0 48 48" width="131px" height="131px" fill-rule="evenodd"
             clip-rule="evenodd" baseProfile="basic">
            <path fill="#ff4081"
                  d="M8.447,41.703L7.145,7.032C7.104,5.887,7.984,4.918,9.127,4.848l23.108-1.445L34,4l2.295-0.851	l2.316-0.145c1.163-0.074,2.166,0.809,2.241,1.972c0.003,0.045,0.004,0.091,0.004,0.137v37.777	c-0.001,1.167-0.948,2.112-2.115,2.111c-0.031,0-0.062-0.001-0.092-0.002l-28.186-1.266c-1.098-0.049-1.974-0.932-2.016-2.031	V41.703z"/>
            <path fill="#fff" fill-rule="evenodd"
                  d="M36.293,3.149l-4.057,0.252l-0.197,4.761	c-0.007,0.174,0.128,0.32,0.302,0.328c0.073,0.003,0.144-0.019,0.202-0.063l1.848-1.403l1.562,1.231	c0.136,0.108,0.335,0.085,0.442-0.051c0.046-0.059,0.07-0.132,0.068-0.207l-0.168-4.847L36.293,3.149z M33.135,19.088	c-0.741,0.577-6.277,0.97-6.277,0.149c0.118-3.135-1.285-3.272-2.066-3.272c-0.739,0-1.987,0.223-1.987,1.903	c0,1.711,1.823,2.677,3.963,3.811c3.039,1.611,6.72,3.562,6.72,8.467c0,4.704-3.822,7.3-8.694,7.3c-5.029,0-9.425-2.035-8.929-9.089	c0.195-0.827,6.59-0.63,6.59,0c-0.08,2.911,0.584,3.767,2.26,3.767c1.287,0,1.871-0.71,1.871-1.903c0-1.808-1.898-2.875-4.084-4.101	c-2.959-1.661-6.441-3.616-6.441-8.104c0-4.477,3.079-7.463,8.576-7.463S33.135,13.494,33.135,19.088z"
                  clip-rule="evenodd"/>
        </svg>
    </g>


</svg>

